<svg width="349" height="90" viewBox="0 0 349 90" fill="none" xmlns="http://www.w3.org/2000/svg">
<path d="M131.064 22.004H135.474C136.183 22.004 136.762 22.1067 137.21 22.312C137.658 22.5173 138.003 22.774 138.246 23.082C138.489 23.39 138.652 23.726 138.736 24.09C138.829 24.454 138.876 24.79 138.876 25.098C138.876 25.406 138.829 25.742 138.736 26.106C138.652 26.4607 138.489 26.792 138.246 27.1C138.003 27.408 137.658 27.6647 137.21 27.87C136.762 28.066 136.183 28.164 135.474 28.164H132.814V32H131.064V22.004ZM132.814 26.736H135.376C135.572 26.736 135.773 26.708 135.978 26.652C136.183 26.596 136.37 26.5073 136.538 26.386C136.715 26.2553 136.855 26.0873 136.958 25.882C137.07 25.6673 137.126 25.4013 137.126 25.084C137.126 24.7573 137.079 24.4867 136.986 24.272C136.893 24.0573 136.767 23.8893 136.608 23.768C136.449 23.6373 136.267 23.5487 136.062 23.502C135.857 23.4553 135.637 23.432 135.404 23.432H132.814V26.736ZM139.94 22.004H141.536V23.516H139.94V22.004ZM139.94 24.762H141.536V32H139.94V24.762ZM143.037 24.762H144.549V25.742H144.577C144.801 25.322 145.114 25.0233 145.515 24.846C145.916 24.6593 146.35 24.566 146.817 24.566C147.386 24.566 147.881 24.6687 148.301 24.874C148.73 25.07 149.085 25.3453 149.365 25.7C149.645 26.0453 149.855 26.4513 149.995 26.918C150.135 27.3847 150.205 27.884 150.205 28.416C150.205 28.9013 150.14 29.3727 150.009 29.83C149.888 30.2873 149.696 30.6933 149.435 31.048C149.183 31.3933 148.861 31.6733 148.469 31.888C148.077 32.0933 147.615 32.196 147.083 32.196C146.85 32.196 146.616 32.1727 146.383 32.126C146.15 32.0887 145.926 32.0233 145.711 31.93C145.496 31.8367 145.296 31.72 145.109 31.58C144.932 31.4307 144.782 31.258 144.661 31.062H144.633V34.674H143.037V24.762ZM148.609 28.388C148.609 28.0613 148.567 27.744 148.483 27.436C148.399 27.128 148.273 26.8573 148.105 26.624C147.937 26.3813 147.727 26.19 147.475 26.05C147.223 25.9007 146.934 25.826 146.607 25.826C145.935 25.826 145.426 26.0593 145.081 26.526C144.745 26.9927 144.577 27.6133 144.577 28.388C144.577 28.752 144.619 29.0927 144.703 29.41C144.796 29.718 144.932 29.984 145.109 30.208C145.286 30.432 145.496 30.6093 145.739 30.74C145.991 30.8707 146.28 30.936 146.607 30.936C146.971 30.936 147.279 30.8613 147.531 30.712C147.783 30.5627 147.988 30.3713 148.147 30.138C148.315 29.8953 148.432 29.6247 148.497 29.326C148.572 29.018 148.609 28.7053 148.609 28.388ZM156.243 27.744C156.225 27.492 156.169 27.2493 156.075 27.016C155.991 26.7827 155.87 26.582 155.711 26.414C155.562 26.2367 155.375 26.0967 155.151 25.994C154.937 25.882 154.694 25.826 154.423 25.826C154.143 25.826 153.887 25.8773 153.653 25.98C153.429 26.0733 153.233 26.2087 153.065 26.386C152.907 26.554 152.776 26.7547 152.673 26.988C152.58 27.2213 152.529 27.4733 152.519 27.744H156.243ZM152.519 28.794C152.519 29.074 152.557 29.3447 152.631 29.606C152.715 29.8673 152.837 30.096 152.995 30.292C153.154 30.488 153.355 30.6467 153.597 30.768C153.84 30.88 154.129 30.936 154.465 30.936C154.932 30.936 155.305 30.838 155.585 30.642C155.875 30.4367 156.089 30.1333 156.229 29.732H157.741C157.657 30.124 157.513 30.474 157.307 30.782C157.102 31.09 156.855 31.3513 156.565 31.566C156.276 31.7713 155.949 31.9253 155.585 32.028C155.231 32.14 154.857 32.196 154.465 32.196C153.896 32.196 153.392 32.1027 152.953 31.916C152.515 31.7293 152.141 31.468 151.833 31.132C151.535 30.796 151.306 30.3947 151.147 29.928C150.998 29.4613 150.923 28.948 150.923 28.388C150.923 27.8747 151.003 27.3893 151.161 26.932C151.329 26.4653 151.563 26.0593 151.861 25.714C152.169 25.3593 152.538 25.0793 152.967 24.874C153.397 24.6687 153.882 24.566 154.423 24.566C154.993 24.566 155.501 24.6873 155.949 24.93C156.407 25.1633 156.785 25.476 157.083 25.868C157.382 26.26 157.597 26.7127 157.727 27.226C157.867 27.73 157.905 28.2527 157.839 28.794H152.519ZM163.593 29.676C163.64 30.1427 163.817 30.4693 164.125 30.656C164.433 30.8427 164.802 30.936 165.231 30.936C165.381 30.936 165.549 30.9267 165.735 30.908C165.931 30.88 166.113 30.8333 166.281 30.768C166.449 30.7027 166.585 30.6093 166.687 30.488C166.799 30.3573 166.851 30.1893 166.841 29.984C166.832 29.7787 166.757 29.6107 166.617 29.48C166.477 29.3493 166.295 29.2467 166.071 29.172C165.857 29.088 165.609 29.018 165.329 28.962C165.049 28.906 164.765 28.8453 164.475 28.78C164.177 28.7147 163.887 28.6353 163.607 28.542C163.337 28.4487 163.089 28.3227 162.865 28.164C162.651 28.0053 162.478 27.8047 162.347 27.562C162.217 27.31 162.151 27.002 162.151 26.638C162.151 26.246 162.245 25.9193 162.431 25.658C162.627 25.3873 162.87 25.1727 163.159 25.014C163.458 24.846 163.785 24.7293 164.139 24.664C164.503 24.5987 164.849 24.566 165.175 24.566C165.549 24.566 165.903 24.608 166.239 24.692C166.585 24.7667 166.893 24.8927 167.163 25.07C167.443 25.2473 167.672 25.4807 167.849 25.77C168.036 26.05 168.153 26.3907 168.199 26.792H166.533C166.459 26.4093 166.281 26.1527 166.001 26.022C165.731 25.8913 165.418 25.826 165.063 25.826C164.951 25.826 164.816 25.8353 164.657 25.854C164.508 25.8727 164.363 25.91 164.223 25.966C164.093 26.0127 163.981 26.0873 163.887 26.19C163.794 26.2833 163.747 26.4093 163.747 26.568C163.747 26.764 163.813 26.9227 163.943 27.044C164.083 27.1653 164.261 27.268 164.475 27.352C164.699 27.4267 164.951 27.492 165.231 27.548C165.511 27.604 165.801 27.6647 166.099 27.73C166.389 27.7953 166.673 27.8747 166.953 27.968C167.233 28.0613 167.481 28.1873 167.695 28.346C167.919 28.5047 168.097 28.7053 168.227 28.948C168.367 29.1907 168.437 29.4893 168.437 29.844C168.437 30.2733 168.339 30.6373 168.143 30.936C167.947 31.2347 167.691 31.4773 167.373 31.664C167.065 31.8507 166.72 31.986 166.337 32.07C165.955 32.154 165.577 32.196 165.203 32.196C164.746 32.196 164.321 32.1447 163.929 32.042C163.547 31.9393 163.211 31.7853 162.921 31.58C162.641 31.3653 162.417 31.104 162.249 30.796C162.091 30.4787 162.007 30.1053 161.997 29.676H163.593ZM168.641 24.762H169.845V22.592H171.441V24.762H172.883V25.952H171.441V29.816C171.441 29.984 171.446 30.1287 171.455 30.25C171.474 30.3713 171.506 30.474 171.553 30.558C171.609 30.642 171.688 30.7073 171.791 30.754C171.894 30.7913 172.034 30.81 172.211 30.81C172.323 30.81 172.435 30.81 172.547 30.81C172.659 30.8007 172.771 30.782 172.883 30.754V31.986C172.706 32.0047 172.533 32.0233 172.365 32.042C172.197 32.0607 172.024 32.07 171.847 32.07C171.427 32.07 171.086 32.0327 170.825 31.958C170.573 31.874 170.372 31.7573 170.223 31.608C170.083 31.4493 169.985 31.2533 169.929 31.02C169.882 30.7867 169.854 30.5207 169.845 30.222V25.952H168.641V24.762ZM173.751 24.762H175.249V26.162H175.277C175.324 25.966 175.412 25.7747 175.543 25.588C175.683 25.4013 175.846 25.2333 176.033 25.084C176.229 24.9253 176.444 24.7993 176.677 24.706C176.91 24.6127 177.148 24.566 177.391 24.566C177.578 24.566 177.704 24.5707 177.769 24.58C177.844 24.5893 177.918 24.5987 177.993 24.608V26.148C177.881 26.1293 177.764 26.1153 177.643 26.106C177.531 26.0873 177.419 26.078 177.307 26.078C177.036 26.078 176.78 26.134 176.537 26.246C176.304 26.3487 176.098 26.5073 175.921 26.722C175.744 26.9273 175.604 27.184 175.501 27.492C175.398 27.8 175.347 28.1547 175.347 28.556V32H173.751V24.762ZM184.749 32H183.181V30.992H183.153C182.957 31.356 182.663 31.65 182.271 31.874C181.888 32.0887 181.496 32.196 181.095 32.196C180.143 32.196 179.452 31.9627 179.023 31.496C178.603 31.02 178.393 30.306 178.393 29.354V24.762H179.989V29.2C179.989 29.8347 180.11 30.2827 180.353 30.544C180.596 30.8053 180.936 30.936 181.375 30.936C181.711 30.936 181.991 30.8847 182.215 30.782C182.439 30.6793 182.621 30.544 182.761 30.376C182.901 30.1987 182.999 29.9887 183.055 29.746C183.12 29.5033 183.153 29.242 183.153 28.962V24.762H184.749V32ZM191.038 27.184C190.973 26.736 190.791 26.4 190.492 26.176C190.203 25.9427 189.834 25.826 189.386 25.826C189.181 25.826 188.961 25.8633 188.728 25.938C188.495 26.0033 188.28 26.134 188.084 26.33C187.888 26.5167 187.725 26.7827 187.594 27.128C187.463 27.464 187.398 27.9073 187.398 28.458C187.398 28.7567 187.431 29.0553 187.496 29.354C187.571 29.6527 187.683 29.9187 187.832 30.152C187.991 30.3853 188.191 30.5767 188.434 30.726C188.677 30.866 188.971 30.936 189.316 30.936C189.783 30.936 190.165 30.7913 190.464 30.502C190.772 30.2127 190.963 29.8067 191.038 29.284H192.634C192.485 30.2267 192.125 30.95 191.556 31.454C190.996 31.9487 190.249 32.196 189.316 32.196C188.747 32.196 188.243 32.1027 187.804 31.916C187.375 31.72 187.011 31.4587 186.712 31.132C186.413 30.796 186.185 30.3993 186.026 29.942C185.877 29.4847 185.802 28.99 185.802 28.458C185.802 27.9167 185.877 27.408 186.026 26.932C186.175 26.456 186.399 26.0453 186.698 25.7C186.997 25.3453 187.365 25.07 187.804 24.874C188.252 24.6687 188.775 24.566 189.372 24.566C189.792 24.566 190.189 24.622 190.562 24.734C190.945 24.8367 191.281 24.9953 191.57 25.21C191.869 25.4247 192.111 25.6953 192.298 26.022C192.485 26.3487 192.597 26.736 192.634 27.184H191.038ZM192.923 24.762H194.127V22.592H195.723V24.762H197.165V25.952H195.723V29.816C195.723 29.984 195.728 30.1287 195.737 30.25C195.756 30.3713 195.789 30.474 195.835 30.558C195.891 30.642 195.971 30.7073 196.073 30.754C196.176 30.7913 196.316 30.81 196.493 30.81C196.605 30.81 196.717 30.81 196.829 30.81C196.941 30.8007 197.053 30.782 197.165 30.754V31.986C196.988 32.0047 196.815 32.0233 196.647 32.042C196.479 32.0607 196.307 32.07 196.129 32.07C195.709 32.07 195.369 32.0327 195.107 31.958C194.855 31.874 194.655 31.7573 194.505 31.608C194.365 31.4493 194.267 31.2533 194.211 31.02C194.165 30.7867 194.137 30.5207 194.127 30.222V25.952H192.923V24.762ZM204.389 32H202.821V30.992H202.793C202.597 31.356 202.303 31.65 201.911 31.874C201.529 32.0887 201.137 32.196 200.735 32.196C199.783 32.196 199.093 31.9627 198.663 31.496C198.243 31.02 198.033 30.306 198.033 29.354V24.762H199.629V29.2C199.629 29.8347 199.751 30.2827 199.993 30.544C200.236 30.8053 200.577 30.936 201.015 30.936C201.351 30.936 201.631 30.8847 201.855 30.782C202.079 30.6793 202.261 30.544 202.401 30.376C202.541 30.1987 202.639 29.9887 202.695 29.746C202.761 29.5033 202.793 29.242 202.793 28.962V24.762H204.389V32ZM205.792 24.762H207.29V26.162H207.318C207.365 25.966 207.454 25.7747 207.584 25.588C207.724 25.4013 207.888 25.2333 208.074 25.084C208.27 24.9253 208.485 24.7993 208.718 24.706C208.952 24.6127 209.19 24.566 209.432 24.566C209.619 24.566 209.745 24.5707 209.81 24.58C209.885 24.5893 209.96 24.5987 210.034 24.608V26.148C209.922 26.1293 209.806 26.1153 209.684 26.106C209.572 26.0873 209.46 26.078 209.348 26.078C209.078 26.078 208.821 26.134 208.578 26.246C208.345 26.3487 208.14 26.5073 207.962 26.722C207.785 26.9273 207.645 27.184 207.542 27.492C207.44 27.8 207.388 28.1547 207.388 28.556V32H205.792V24.762ZM215.158 27.744C215.14 27.492 215.084 27.2493 214.99 27.016C214.906 26.7827 214.785 26.582 214.626 26.414C214.477 26.2367 214.29 26.0967 214.066 25.994C213.852 25.882 213.609 25.826 213.338 25.826C213.058 25.826 212.802 25.8773 212.568 25.98C212.344 26.0733 212.148 26.2087 211.98 26.386C211.822 26.554 211.691 26.7547 211.588 26.988C211.495 27.2213 211.444 27.4733 211.434 27.744H215.158ZM211.434 28.794C211.434 29.074 211.472 29.3447 211.546 29.606C211.63 29.8673 211.752 30.096 211.91 30.292C212.069 30.488 212.27 30.6467 212.512 30.768C212.755 30.88 213.044 30.936 213.38 30.936C213.847 30.936 214.22 30.838 214.5 30.642C214.79 30.4367 215.004 30.1333 215.144 29.732H216.656C216.572 30.124 216.428 30.474 216.222 30.782C216.017 31.09 215.77 31.3513 215.48 31.566C215.191 31.7713 214.864 31.9253 214.5 32.028C214.146 32.14 213.772 32.196 213.38 32.196C212.811 32.196 212.307 32.1027 211.868 31.916C211.43 31.7293 211.056 31.468 210.748 31.132C210.45 30.796 210.221 30.3947 210.062 29.928C209.913 29.4613 209.838 28.948 209.838 28.388C209.838 27.8747 209.918 27.3893 210.076 26.932C210.244 26.4653 210.478 26.0593 210.776 25.714C211.084 25.3593 211.453 25.0793 211.882 24.874C212.312 24.6687 212.797 24.566 213.338 24.566C213.908 24.566 214.416 24.6873 214.864 24.93C215.322 25.1633 215.7 25.476 215.998 25.868C216.297 26.26 216.512 26.7127 216.642 27.226C216.782 27.73 216.82 28.2527 216.754 28.794H211.434ZM226.19 27.184C226.125 26.736 225.943 26.4 225.644 26.176C225.355 25.9427 224.986 25.826 224.538 25.826C224.333 25.826 224.113 25.8633 223.88 25.938C223.647 26.0033 223.432 26.134 223.236 26.33C223.04 26.5167 222.877 26.7827 222.746 27.128C222.615 27.464 222.55 27.9073 222.55 28.458C222.55 28.7567 222.583 29.0553 222.648 29.354C222.723 29.6527 222.835 29.9187 222.984 30.152C223.143 30.3853 223.343 30.5767 223.586 30.726C223.829 30.866 224.123 30.936 224.468 30.936C224.935 30.936 225.317 30.7913 225.616 30.502C225.924 30.2127 226.115 29.8067 226.19 29.284H227.786C227.637 30.2267 227.277 30.95 226.708 31.454C226.148 31.9487 225.401 32.196 224.468 32.196C223.899 32.196 223.395 32.1027 222.956 31.916C222.527 31.72 222.163 31.4587 221.864 31.132C221.565 30.796 221.337 30.3993 221.178 29.942C221.029 29.4847 220.954 28.99 220.954 28.458C220.954 27.9167 221.029 27.408 221.178 26.932C221.327 26.456 221.551 26.0453 221.85 25.7C222.149 25.3453 222.517 25.07 222.956 24.874C223.404 24.6687 223.927 24.566 224.524 24.566C224.944 24.566 225.341 24.622 225.714 24.734C226.097 24.8367 226.433 24.9953 226.722 25.21C227.021 25.4247 227.263 25.6953 227.45 26.022C227.637 26.3487 227.749 26.736 227.786 27.184H226.19ZM232.121 32.196C231.543 32.196 231.025 32.1027 230.567 31.916C230.119 31.72 229.737 31.454 229.419 31.118C229.111 30.782 228.873 30.3807 228.705 29.914C228.547 29.4473 228.467 28.934 228.467 28.374C228.467 27.8233 228.547 27.3147 228.705 26.848C228.873 26.3813 229.111 25.98 229.419 25.644C229.737 25.308 230.119 25.0467 230.567 24.86C231.025 24.664 231.543 24.566 232.121 24.566C232.7 24.566 233.213 24.664 233.661 24.86C234.119 25.0467 234.501 25.308 234.809 25.644C235.127 25.98 235.365 26.3813 235.523 26.848C235.691 27.3147 235.775 27.8233 235.775 28.374C235.775 28.934 235.691 29.4473 235.523 29.914C235.365 30.3807 235.127 30.782 234.809 31.118C234.501 31.454 234.119 31.72 233.661 31.916C233.213 32.1027 232.7 32.196 232.121 32.196ZM232.121 30.936C232.476 30.936 232.784 30.8613 233.045 30.712C233.307 30.5627 233.521 30.3667 233.689 30.124C233.857 29.8813 233.979 29.6107 234.053 29.312C234.137 29.004 234.179 28.6913 234.179 28.374C234.179 28.066 234.137 27.758 234.053 27.45C233.979 27.142 233.857 26.8713 233.689 26.638C233.521 26.3953 233.307 26.1993 233.045 26.05C232.784 25.9007 232.476 25.826 232.121 25.826C231.767 25.826 231.459 25.9007 231.197 26.05C230.936 26.1993 230.721 26.3953 230.553 26.638C230.385 26.8713 230.259 27.142 230.175 27.45C230.101 27.758 230.063 28.066 230.063 28.374C230.063 28.6913 230.101 29.004 230.175 29.312C230.259 29.6107 230.385 29.8813 230.553 30.124C230.721 30.3667 230.936 30.5627 231.197 30.712C231.459 30.8613 231.767 30.936 232.121 30.936ZM236.822 24.762H238.334V25.77H238.376C238.498 25.5927 238.628 25.4293 238.768 25.28C238.908 25.1307 239.062 25.0047 239.23 24.902C239.408 24.7993 239.608 24.72 239.832 24.664C240.056 24.5987 240.313 24.566 240.602 24.566C241.041 24.566 241.447 24.664 241.82 24.86C242.203 25.056 242.474 25.3593 242.632 25.77C242.903 25.3967 243.216 25.1027 243.57 24.888C243.925 24.6733 244.368 24.566 244.9 24.566C245.666 24.566 246.258 24.7527 246.678 25.126C247.108 25.4993 247.322 26.1247 247.322 27.002V32H245.726V27.772C245.726 27.4827 245.717 27.2213 245.698 26.988C245.68 26.7453 245.624 26.54 245.53 26.372C245.446 26.1947 245.316 26.0593 245.138 25.966C244.961 25.8727 244.718 25.826 244.41 25.826C243.869 25.826 243.477 25.994 243.234 26.33C242.992 26.666 242.87 27.142 242.87 27.758V32H241.274V27.352C241.274 26.848 241.181 26.47 240.994 26.218C240.817 25.9567 240.486 25.826 240 25.826C239.795 25.826 239.594 25.868 239.398 25.952C239.212 26.036 239.044 26.1573 238.894 26.316C238.754 26.4747 238.638 26.6707 238.544 26.904C238.46 27.1373 238.418 27.4033 238.418 27.702V32H236.822V24.762ZM248.766 24.762H250.278V25.742H250.306C250.53 25.322 250.842 25.0233 251.244 24.846C251.645 24.6593 252.079 24.566 252.546 24.566C253.115 24.566 253.61 24.6687 254.03 24.874C254.459 25.07 254.814 25.3453 255.094 25.7C255.374 26.0453 255.584 26.4513 255.724 26.918C255.864 27.3847 255.934 27.884 255.934 28.416C255.934 28.9013 255.868 29.3727 255.738 29.83C255.616 30.2873 255.425 30.6933 255.164 31.048C254.912 31.3933 254.59 31.6733 254.198 31.888C253.806 32.0933 253.344 32.196 252.812 32.196C252.578 32.196 252.345 32.1727 252.112 32.126C251.878 32.0887 251.654 32.0233 251.44 31.93C251.225 31.8367 251.024 31.72 250.838 31.58C250.66 31.4307 250.511 31.258 250.39 31.062H250.362V34.674H248.766V24.762ZM254.338 28.388C254.338 28.0613 254.296 27.744 254.212 27.436C254.128 27.128 254.002 26.8573 253.834 26.624C253.666 26.3813 253.456 26.19 253.204 26.05C252.952 25.9007 252.662 25.826 252.336 25.826C251.664 25.826 251.155 26.0593 250.81 26.526C250.474 26.9927 250.306 27.6133 250.306 28.388C250.306 28.752 250.348 29.0927 250.432 29.41C250.525 29.718 250.66 29.984 250.838 30.208C251.015 30.432 251.225 30.6093 251.468 30.74C251.72 30.8707 252.009 30.936 252.336 30.936C252.7 30.936 253.008 30.8613 253.26 30.712C253.512 30.5627 253.717 30.3713 253.876 30.138C254.044 29.8953 254.16 29.6247 254.226 29.326C254.3 29.018 254.338 28.7053 254.338 28.388ZM257.002 24.762H258.5V26.162H258.528C258.575 25.966 258.664 25.7747 258.794 25.588C258.934 25.4013 259.098 25.2333 259.284 25.084C259.48 24.9253 259.695 24.7993 259.928 24.706C260.162 24.6127 260.4 24.566 260.642 24.566C260.829 24.566 260.955 24.5707 261.02 24.58C261.095 24.5893 261.17 24.5987 261.244 24.608V26.148C261.132 26.1293 261.016 26.1153 260.894 26.106C260.782 26.0873 260.67 26.078 260.558 26.078C260.288 26.078 260.031 26.134 259.788 26.246C259.555 26.3487 259.35 26.5073 259.172 26.722C258.995 26.9273 258.855 27.184 258.752 27.492C258.65 27.8 258.598 28.1547 258.598 28.556V32H257.002V24.762ZM261.686 22.004H263.282V23.516H261.686V22.004ZM261.686 24.762H263.282V32H261.686V24.762ZM264.741 24.762H266.253V25.77H266.295C266.417 25.5927 266.547 25.4293 266.687 25.28C266.827 25.1307 266.981 25.0047 267.149 24.902C267.327 24.7993 267.527 24.72 267.751 24.664C267.975 24.5987 268.232 24.566 268.521 24.566C268.96 24.566 269.366 24.664 269.739 24.86C270.122 25.056 270.393 25.3593 270.551 25.77C270.822 25.3967 271.135 25.1027 271.489 24.888C271.844 24.6733 272.287 24.566 272.819 24.566C273.585 24.566 274.177 24.7527 274.597 25.126C275.027 25.4993 275.241 26.1247 275.241 27.002V32H273.645V27.772C273.645 27.4827 273.636 27.2213 273.617 26.988C273.599 26.7453 273.543 26.54 273.449 26.372C273.365 26.1947 273.235 26.0593 273.057 25.966C272.88 25.8727 272.637 25.826 272.329 25.826C271.788 25.826 271.396 25.994 271.153 26.33C270.911 26.666 270.789 27.142 270.789 27.758V32H269.193V27.352C269.193 26.848 269.1 26.47 268.913 26.218C268.736 25.9567 268.405 25.826 267.919 25.826C267.714 25.826 267.513 25.868 267.317 25.952C267.131 26.036 266.963 26.1573 266.813 26.316C266.673 26.4747 266.557 26.6707 266.463 26.904C266.379 27.1373 266.337 27.4033 266.337 27.702V32H264.741V24.762ZM276.685 22.004H278.281V23.516H276.685V22.004ZM276.685 24.762H278.281V32H276.685V24.762ZM280.944 29.676C280.991 30.1427 281.168 30.4693 281.476 30.656C281.784 30.8427 282.153 30.936 282.582 30.936C282.731 30.936 282.899 30.9267 283.086 30.908C283.282 30.88 283.464 30.8333 283.632 30.768C283.8 30.7027 283.935 30.6093 284.038 30.488C284.15 30.3573 284.201 30.1893 284.192 29.984C284.183 29.7787 284.108 29.6107 283.968 29.48C283.828 29.3493 283.646 29.2467 283.422 29.172C283.207 29.088 282.96 29.018 282.68 28.962C282.4 28.906 282.115 28.8453 281.826 28.78C281.527 28.7147 281.238 28.6353 280.958 28.542C280.687 28.4487 280.44 28.3227 280.216 28.164C280.001 28.0053 279.829 27.8047 279.698 27.562C279.567 27.31 279.502 27.002 279.502 26.638C279.502 26.246 279.595 25.9193 279.782 25.658C279.978 25.3873 280.221 25.1727 280.51 25.014C280.809 24.846 281.135 24.7293 281.49 24.664C281.854 24.5987 282.199 24.566 282.526 24.566C282.899 24.566 283.254 24.608 283.59 24.692C283.935 24.7667 284.243 24.8927 284.514 25.07C284.794 25.2473 285.023 25.4807 285.2 25.77C285.387 26.05 285.503 26.3907 285.55 26.792H283.884C283.809 26.4093 283.632 26.1527 283.352 26.022C283.081 25.8913 282.769 25.826 282.414 25.826C282.302 25.826 282.167 25.8353 282.008 25.854C281.859 25.8727 281.714 25.91 281.574 25.966C281.443 26.0127 281.331 26.0873 281.238 26.19C281.145 26.2833 281.098 26.4093 281.098 26.568C281.098 26.764 281.163 26.9227 281.294 27.044C281.434 27.1653 281.611 27.268 281.826 27.352C282.05 27.4267 282.302 27.492 282.582 27.548C282.862 27.604 283.151 27.6647 283.45 27.73C283.739 27.7953 284.024 27.8747 284.304 27.968C284.584 28.0613 284.831 28.1873 285.046 28.346C285.27 28.5047 285.447 28.7053 285.578 28.948C285.718 29.1907 285.788 29.4893 285.788 29.844C285.788 30.2733 285.69 30.6373 285.494 30.936C285.298 31.2347 285.041 31.4773 284.724 31.664C284.416 31.8507 284.071 31.986 283.688 32.07C283.305 32.154 282.927 32.196 282.554 32.196C282.097 32.196 281.672 32.1447 281.28 32.042C280.897 31.9393 280.561 31.7853 280.272 31.58C279.992 31.3653 279.768 31.104 279.6 30.796C279.441 30.4787 279.357 30.1053 279.348 29.676H280.944ZM291.69 27.744C291.671 27.492 291.615 27.2493 291.522 27.016C291.438 26.7827 291.316 26.582 291.158 26.414C291.008 26.2367 290.822 26.0967 290.598 25.994C290.383 25.882 290.14 25.826 289.87 25.826C289.59 25.826 289.333 25.8773 289.1 25.98C288.876 26.0733 288.68 26.2087 288.512 26.386C288.353 26.554 288.222 26.7547 288.12 26.988C288.026 27.2213 287.975 27.4733 287.966 27.744H291.69ZM287.966 28.794C287.966 29.074 288.003 29.3447 288.078 29.606C288.162 29.8673 288.283 30.096 288.442 30.292C288.6 30.488 288.801 30.6467 289.044 30.768C289.286 30.88 289.576 30.936 289.912 30.936C290.378 30.936 290.752 30.838 291.032 30.642C291.321 30.4367 291.536 30.1333 291.676 29.732H293.188C293.104 30.124 292.959 30.474 292.754 30.782C292.548 31.09 292.301 31.3513 292.012 31.566C291.722 31.7713 291.396 31.9253 291.032 32.028C290.677 32.14 290.304 32.196 289.912 32.196C289.342 32.196 288.838 32.1027 288.4 31.916C287.961 31.7293 287.588 31.468 287.28 31.132C286.981 30.796 286.752 30.3947 286.594 29.928C286.444 29.4613 286.37 28.948 286.37 28.388C286.37 27.8747 286.449 27.3893 286.608 26.932C286.776 26.4653 287.009 26.0593 287.308 25.714C287.616 25.3593 287.984 25.0793 288.414 24.874C288.843 24.6687 289.328 24.566 289.87 24.566C290.439 24.566 290.948 24.6873 291.396 24.93C291.853 25.1633 292.231 25.476 292.53 25.868C292.828 26.26 293.043 26.7127 293.174 27.226C293.314 27.73 293.351 28.2527 293.286 28.794H287.966ZM301.037 32H299.525V31.02H299.497C299.282 31.44 298.97 31.7433 298.559 31.93C298.148 32.1073 297.714 32.196 297.257 32.196C296.688 32.196 296.188 32.098 295.759 31.902C295.339 31.6967 294.989 31.4213 294.709 31.076C294.429 30.7307 294.219 30.3247 294.079 29.858C293.939 29.382 293.869 28.8733 293.869 28.332C293.869 27.6787 293.958 27.114 294.135 26.638C294.312 26.162 294.546 25.77 294.835 25.462C295.134 25.154 295.47 24.93 295.843 24.79C296.226 24.6407 296.613 24.566 297.005 24.566C297.229 24.566 297.458 24.5893 297.691 24.636C297.924 24.6733 298.148 24.7387 298.363 24.832C298.578 24.9253 298.774 25.0467 298.951 25.196C299.138 25.336 299.292 25.504 299.413 25.7H299.441V22.004H301.037V32ZM295.465 28.458C295.465 28.766 295.502 29.0693 295.577 29.368C295.661 29.6667 295.782 29.9327 295.941 30.166C296.109 30.3993 296.319 30.586 296.571 30.726C296.823 30.866 297.122 30.936 297.467 30.936C297.822 30.936 298.125 30.8613 298.377 30.712C298.638 30.5627 298.848 30.3667 299.007 30.124C299.175 29.8813 299.296 29.6107 299.371 29.312C299.455 29.004 299.497 28.6913 299.497 28.374C299.497 27.5713 299.315 26.946 298.951 26.498C298.596 26.05 298.111 25.826 297.495 25.826C297.122 25.826 296.804 25.9053 296.543 26.064C296.291 26.2133 296.081 26.414 295.913 26.666C295.754 26.9087 295.638 27.1887 295.563 27.506C295.498 27.814 295.465 28.1313 295.465 28.458Z" fill="#FEFEFE"/>
<path d="M134.068 63.108H131.212L134.044 58.944H134.068V63.108ZM135.028 63.108V57.492H134.212L130.336 63.024V64.008H134.068V66H135.028V64.008H136.18V63.108H135.028ZM137.772 61.812C137.772 61.604 137.772 61.376 137.772 61.128C137.78 60.872 137.8 60.62 137.832 60.372C137.872 60.116 137.924 59.868 137.988 59.628C138.06 59.388 138.16 59.18 138.288 59.004C138.424 58.82 138.592 58.672 138.792 58.56C138.992 58.448 139.236 58.392 139.524 58.392C139.812 58.392 140.056 58.448 140.256 58.56C140.456 58.672 140.62 58.82 140.748 59.004C140.884 59.18 140.984 59.388 141.048 59.628C141.12 59.868 141.172 60.116 141.204 60.372C141.244 60.62 141.264 60.872 141.264 61.128C141.272 61.376 141.276 61.604 141.276 61.812C141.276 62.132 141.264 62.492 141.24 62.892C141.224 63.284 141.16 63.656 141.048 64.008C140.944 64.352 140.772 64.644 140.532 64.884C140.292 65.124 139.956 65.244 139.524 65.244C139.092 65.244 138.756 65.124 138.516 64.884C138.276 64.644 138.1 64.352 137.988 64.008C137.884 63.656 137.82 63.284 137.796 62.892C137.78 62.492 137.772 62.132 137.772 61.812ZM136.692 61.824C136.692 62.136 136.7 62.46 136.716 62.796C136.732 63.132 136.772 63.46 136.836 63.78C136.9 64.1 136.992 64.404 137.112 64.692C137.232 64.972 137.396 65.22 137.604 65.436C137.812 65.652 138.072 65.824 138.384 65.952C138.704 66.072 139.084 66.132 139.524 66.132C139.972 66.132 140.352 66.072 140.664 65.952C140.976 65.824 141.236 65.652 141.444 65.436C141.652 65.22 141.816 64.972 141.936 64.692C142.056 64.404 142.148 64.1 142.212 63.78C142.276 63.46 142.316 63.132 142.332 62.796C142.348 62.46 142.356 62.136 142.356 61.824C142.356 61.512 142.348 61.188 142.332 60.852C142.316 60.516 142.276 60.188 142.212 59.868C142.148 59.548 142.056 59.244 141.936 58.956C141.816 58.668 141.652 58.416 141.444 58.2C141.236 57.984 140.972 57.812 140.652 57.684C140.34 57.556 139.964 57.492 139.524 57.492C139.084 57.492 138.704 57.556 138.384 57.684C138.072 57.812 137.812 57.984 137.604 58.2C137.396 58.416 137.232 58.668 137.112 58.956C136.992 59.244 136.9 59.548 136.836 59.868C136.772 60.188 136.732 60.516 136.716 60.852C136.7 61.188 136.692 61.512 136.692 61.824ZM143.648 59.22C143.648 59.076 143.672 58.94 143.72 58.812C143.776 58.676 143.852 58.556 143.948 58.452C144.044 58.34 144.16 58.252 144.296 58.188C144.44 58.124 144.6 58.092 144.776 58.092C144.952 58.092 145.108 58.124 145.244 58.188C145.388 58.252 145.508 58.34 145.604 58.452C145.7 58.556 145.772 58.676 145.82 58.812C145.876 58.94 145.904 59.076 145.904 59.22C145.904 59.364 145.876 59.504 145.82 59.64C145.772 59.768 145.7 59.888 145.604 60C145.508 60.104 145.388 60.188 145.244 60.252C145.108 60.316 144.952 60.348 144.776 60.348C144.6 60.348 144.44 60.316 144.296 60.252C144.16 60.188 144.044 60.104 143.948 60C143.852 59.888 143.776 59.768 143.72 59.64C143.672 59.504 143.648 59.364 143.648 59.22ZM143.048 59.22C143.048 59.46 143.092 59.688 143.18 59.904C143.268 60.112 143.388 60.296 143.54 60.456C143.7 60.608 143.884 60.728 144.092 60.816C144.308 60.904 144.536 60.948 144.776 60.948C145.016 60.948 145.24 60.904 145.448 60.816C145.656 60.728 145.836 60.608 145.988 60.456C146.148 60.296 146.272 60.112 146.36 59.904C146.456 59.688 146.504 59.46 146.504 59.22C146.504 58.98 146.456 58.756 146.36 58.548C146.272 58.34 146.148 58.16 145.988 58.008C145.836 57.848 145.656 57.724 145.448 57.636C145.24 57.54 145.016 57.492 144.776 57.492C144.536 57.492 144.308 57.54 144.092 57.636C143.884 57.724 143.7 57.848 143.54 58.008C143.388 58.16 143.268 58.34 143.18 58.548C143.092 58.756 143.048 58.98 143.048 59.22ZM147.229 60.504H148.249C148.241 60.248 148.265 59.996 148.321 59.748C148.385 59.492 148.485 59.264 148.621 59.064C148.757 58.864 148.929 58.704 149.137 58.584C149.353 58.456 149.609 58.392 149.905 58.392C150.129 58.392 150.341 58.428 150.541 58.5C150.741 58.572 150.913 58.676 151.057 58.812C151.209 58.948 151.329 59.112 151.417 59.304C151.505 59.488 151.549 59.696 151.549 59.928C151.549 60.224 151.501 60.484 151.405 60.708C151.317 60.932 151.181 61.14 150.997 61.332C150.821 61.524 150.597 61.716 150.325 61.908C150.053 62.092 149.737 62.296 149.377 62.52C149.081 62.696 148.797 62.884 148.525 63.084C148.253 63.284 148.009 63.516 147.793 63.78C147.577 64.044 147.397 64.356 147.253 64.716C147.117 65.068 147.029 65.496 146.989 66H152.545V65.1H148.177C148.225 64.836 148.325 64.604 148.477 64.404C148.637 64.196 148.825 64.004 149.041 63.828C149.265 63.652 149.509 63.488 149.773 63.336C150.037 63.176 150.301 63.016 150.565 62.856C150.829 62.688 151.085 62.512 151.333 62.328C151.581 62.144 151.801 61.94 151.993 61.716C152.185 61.484 152.337 61.224 152.449 60.936C152.569 60.648 152.629 60.316 152.629 59.94C152.629 59.54 152.557 59.188 152.413 58.884C152.277 58.58 152.089 58.328 151.849 58.128C151.609 57.92 151.325 57.764 150.997 57.66C150.677 57.548 150.333 57.492 149.965 57.492C149.517 57.492 149.117 57.568 148.765 57.72C148.413 57.872 148.117 58.084 147.877 58.356C147.645 58.62 147.473 58.936 147.361 59.304C147.249 59.672 147.205 60.072 147.229 60.504ZM155.505 61.14V62.004C155.697 61.98 155.901 61.968 156.117 61.968C156.373 61.968 156.609 62.004 156.825 62.076C157.049 62.14 157.241 62.244 157.401 62.388C157.561 62.524 157.689 62.696 157.785 62.904C157.881 63.104 157.929 63.336 157.929 63.6C157.929 63.856 157.877 64.088 157.773 64.296C157.677 64.496 157.545 64.668 157.377 64.812C157.209 64.948 157.013 65.056 156.789 65.136C156.565 65.208 156.329 65.244 156.081 65.244C155.497 65.244 155.053 65.072 154.749 64.728C154.445 64.376 154.285 63.924 154.269 63.372H153.249C153.241 63.812 153.301 64.204 153.429 64.548C153.565 64.892 153.757 65.184 154.005 65.424C154.253 65.656 154.553 65.832 154.905 65.952C155.257 66.072 155.649 66.132 156.081 66.132C156.481 66.132 156.857 66.08 157.209 65.976C157.569 65.864 157.881 65.7 158.145 65.484C158.409 65.268 158.617 65 158.769 64.68C158.929 64.352 159.009 63.976 159.009 63.552C159.009 63.04 158.881 62.596 158.625 62.22C158.377 61.844 157.993 61.6 157.473 61.488V61.464C157.809 61.312 158.089 61.088 158.313 60.792C158.537 60.496 158.649 60.156 158.649 59.772C158.649 59.38 158.581 59.04 158.445 58.752C158.317 58.464 158.137 58.228 157.905 58.044C157.673 57.86 157.397 57.724 157.077 57.636C156.765 57.54 156.425 57.492 156.057 57.492C155.633 57.492 155.257 57.56 154.929 57.696C154.609 57.832 154.341 58.02 154.125 58.26C153.909 58.5 153.741 58.788 153.621 59.124C153.509 59.46 153.445 59.832 153.429 60.24H154.449C154.449 59.992 154.481 59.756 154.545 59.532C154.609 59.308 154.705 59.112 154.833 58.944C154.969 58.776 155.137 58.644 155.337 58.548C155.545 58.444 155.785 58.392 156.057 58.392C156.489 58.392 156.849 58.508 157.137 58.74C157.425 58.964 157.569 59.304 157.569 59.76C157.569 59.984 157.525 60.184 157.437 60.36C157.349 60.536 157.229 60.684 157.077 60.804C156.933 60.916 156.761 61.004 156.561 61.068C156.369 61.124 156.165 61.152 155.949 61.152H155.733C155.693 61.152 155.653 61.152 155.613 61.152C155.581 61.152 155.545 61.148 155.505 61.14ZM160.337 57.432V60.528H161.153V57.432H160.337ZM167.576 58.536V57.636H163.376L162.584 62.052L163.46 62.1C163.66 61.86 163.888 61.668 164.144 61.524C164.408 61.372 164.708 61.296 165.044 61.296C165.332 61.296 165.592 61.344 165.824 61.44C166.064 61.536 166.268 61.672 166.436 61.848C166.604 62.016 166.732 62.22 166.82 62.46C166.916 62.692 166.964 62.948 166.964 63.228C166.964 63.564 166.916 63.86 166.82 64.116C166.724 64.364 166.592 64.572 166.424 64.74C166.264 64.908 166.072 65.036 165.848 65.124C165.632 65.204 165.404 65.244 165.164 65.244C164.908 65.244 164.672 65.208 164.456 65.136C164.248 65.056 164.064 64.948 163.904 64.812C163.752 64.668 163.628 64.504 163.532 64.32C163.444 64.128 163.392 63.924 163.376 63.708H162.356C162.364 64.092 162.44 64.436 162.584 64.74C162.728 65.044 162.924 65.3 163.172 65.508C163.42 65.708 163.704 65.864 164.024 65.976C164.352 66.08 164.7 66.132 165.068 66.132C165.564 66.132 165.996 66.056 166.364 65.904C166.74 65.744 167.052 65.532 167.3 65.268C167.548 65.004 167.732 64.704 167.852 64.368C167.98 64.024 168.044 63.672 168.044 63.312C168.044 62.824 167.972 62.4 167.828 62.04C167.684 61.672 167.488 61.368 167.24 61.128C166.992 60.88 166.7 60.696 166.364 60.576C166.028 60.456 165.672 60.396 165.296 60.396C165.008 60.396 164.716 60.448 164.42 60.552C164.132 60.648 163.896 60.8 163.712 61.008L163.688 60.984L164.144 58.536H167.576ZM173.764 58.536V57.636H169.564L168.772 62.052L169.648 62.1C169.848 61.86 170.076 61.668 170.332 61.524C170.596 61.372 170.896 61.296 171.232 61.296C171.52 61.296 171.78 61.344 172.012 61.44C172.252 61.536 172.456 61.672 172.624 61.848C172.792 62.016 172.92 62.22 173.008 62.46C173.104 62.692 173.152 62.948 173.152 63.228C173.152 63.564 173.104 63.86 173.008 64.116C172.912 64.364 172.78 64.572 172.612 64.74C172.452 64.908 172.26 65.036 172.036 65.124C171.82 65.204 171.592 65.244 171.352 65.244C171.096 65.244 170.86 65.208 170.644 65.136C170.436 65.056 170.252 64.948 170.092 64.812C169.94 64.668 169.816 64.504 169.72 64.32C169.632 64.128 169.58 63.924 169.564 63.708H168.544C168.552 64.092 168.628 64.436 168.772 64.74C168.916 65.044 169.112 65.3 169.36 65.508C169.608 65.708 169.892 65.864 170.212 65.976C170.54 66.08 170.888 66.132 171.256 66.132C171.752 66.132 172.184 66.056 172.552 65.904C172.928 65.744 173.24 65.532 173.488 65.268C173.736 65.004 173.92 64.704 174.04 64.368C174.168 64.024 174.232 63.672 174.232 63.312C174.232 62.824 174.16 62.4 174.016 62.04C173.872 61.672 173.676 61.368 173.428 61.128C173.18 60.88 172.888 60.696 172.552 60.576C172.216 60.456 171.86 60.396 171.484 60.396C171.196 60.396 170.904 60.448 170.608 60.552C170.32 60.648 170.084 60.8 169.9 61.008L169.876 60.984L170.332 58.536H173.764ZM175.308 64.668V66H176.64V64.668H175.308ZM183.28 58.512V57.636H177.772V58.596H182.236C181.788 59.068 181.368 59.584 180.976 60.144C180.592 60.704 180.252 61.3 179.956 61.932C179.66 62.556 179.416 63.212 179.224 63.9C179.04 64.58 178.924 65.28 178.876 66H180.016C180.056 65.336 180.168 64.652 180.352 63.948C180.536 63.244 180.772 62.56 181.06 61.896C181.356 61.232 181.692 60.608 182.068 60.024C182.444 59.44 182.848 58.936 183.28 58.512ZM186.348 57.432V60.528H187.164V57.432H186.348ZM184.668 57.432V60.528H185.484V57.432H184.668ZM188.914 57.432V66H189.994V59.124H190.018L194.494 66H195.742V57.432H194.662V64.38H194.638L190.126 57.432H188.914ZM206.161 66V57.492H205.381C205.325 57.812 205.221 58.076 205.069 58.284C204.917 58.492 204.729 58.656 204.505 58.776C204.289 58.896 204.045 58.98 203.773 59.028C203.501 59.068 203.221 59.088 202.933 59.088V59.904H205.141V66H206.161ZM212.349 66V57.492H211.569C211.513 57.812 211.409 58.076 211.257 58.284C211.105 58.492 210.917 58.656 210.693 58.776C210.477 58.896 210.233 58.98 209.961 59.028C209.689 59.068 209.409 59.088 209.121 59.088V59.904H211.329V66H212.349ZM218.537 66V57.492H217.757C217.701 57.812 217.597 58.076 217.445 58.284C217.293 58.492 217.105 58.656 216.881 58.776C216.665 58.896 216.421 58.98 216.149 59.028C215.877 59.068 215.597 59.088 215.309 59.088V59.904H217.517V66H218.537ZM221.725 59.22C221.725 59.076 221.749 58.94 221.797 58.812C221.853 58.676 221.929 58.556 222.025 58.452C222.121 58.34 222.237 58.252 222.373 58.188C222.517 58.124 222.677 58.092 222.853 58.092C223.029 58.092 223.185 58.124 223.321 58.188C223.465 58.252 223.585 58.34 223.681 58.452C223.777 58.556 223.849 58.676 223.897 58.812C223.953 58.94 223.981 59.076 223.981 59.22C223.981 59.364 223.953 59.504 223.897 59.64C223.849 59.768 223.777 59.888 223.681 60C223.585 60.104 223.465 60.188 223.321 60.252C223.185 60.316 223.029 60.348 222.853 60.348C222.677 60.348 222.517 60.316 222.373 60.252C222.237 60.188 222.121 60.104 222.025 60C221.929 59.888 221.853 59.768 221.797 59.64C221.749 59.504 221.725 59.364 221.725 59.22ZM221.125 59.22C221.125 59.46 221.169 59.688 221.257 59.904C221.345 60.112 221.465 60.296 221.617 60.456C221.777 60.608 221.961 60.728 222.169 60.816C222.385 60.904 222.613 60.948 222.853 60.948C223.093 60.948 223.317 60.904 223.525 60.816C223.733 60.728 223.913 60.608 224.065 60.456C224.225 60.296 224.349 60.112 224.437 59.904C224.533 59.688 224.581 59.46 224.581 59.22C224.581 58.98 224.533 58.756 224.437 58.548C224.349 58.34 224.225 58.16 224.065 58.008C223.913 57.848 223.733 57.724 223.525 57.636C223.317 57.54 223.093 57.492 222.853 57.492C222.613 57.492 222.385 57.54 222.169 57.636C221.961 57.724 221.777 57.848 221.617 58.008C221.465 58.16 221.345 58.34 221.257 58.548C221.169 58.756 221.125 58.98 221.125 59.22ZM230.418 58.536V57.636H226.218L225.426 62.052L226.302 62.1C226.502 61.86 226.73 61.668 226.986 61.524C227.25 61.372 227.55 61.296 227.886 61.296C228.174 61.296 228.434 61.344 228.666 61.44C228.906 61.536 229.11 61.672 229.278 61.848C229.446 62.016 229.574 62.22 229.662 62.46C229.758 62.692 229.806 62.948 229.806 63.228C229.806 63.564 229.758 63.86 229.662 64.116C229.566 64.364 229.434 64.572 229.266 64.74C229.106 64.908 228.914 65.036 228.69 65.124C228.474 65.204 228.246 65.244 228.006 65.244C227.75 65.244 227.514 65.208 227.298 65.136C227.09 65.056 226.906 64.948 226.746 64.812C226.594 64.668 226.47 64.504 226.374 64.32C226.286 64.128 226.234 63.924 226.218 63.708H225.198C225.206 64.092 225.282 64.436 225.426 64.74C225.57 65.044 225.766 65.3 226.014 65.508C226.262 65.708 226.546 65.864 226.866 65.976C227.194 66.08 227.542 66.132 227.91 66.132C228.406 66.132 228.838 66.056 229.206 65.904C229.582 65.744 229.894 65.532 230.142 65.268C230.39 65.004 230.574 64.704 230.694 64.368C230.822 64.024 230.886 63.672 230.886 63.312C230.886 62.824 230.814 62.4 230.67 62.04C230.526 61.672 230.33 61.368 230.082 61.128C229.834 60.88 229.542 60.696 229.206 60.576C228.87 60.456 228.514 60.396 228.138 60.396C227.85 60.396 227.558 60.448 227.262 60.552C226.974 60.648 226.738 60.8 226.554 61.008L226.53 60.984L226.986 58.536H230.418ZM236.606 58.536V57.636H232.406L231.614 62.052L232.49 62.1C232.69 61.86 232.918 61.668 233.174 61.524C233.438 61.372 233.738 61.296 234.074 61.296C234.362 61.296 234.622 61.344 234.854 61.44C235.094 61.536 235.298 61.672 235.466 61.848C235.634 62.016 235.762 62.22 235.85 62.46C235.946 62.692 235.994 62.948 235.994 63.228C235.994 63.564 235.946 63.86 235.85 64.116C235.754 64.364 235.622 64.572 235.454 64.74C235.294 64.908 235.102 65.036 234.878 65.124C234.662 65.204 234.434 65.244 234.194 65.244C233.938 65.244 233.702 65.208 233.486 65.136C233.278 65.056 233.094 64.948 232.934 64.812C232.782 64.668 232.658 64.504 232.562 64.32C232.474 64.128 232.422 63.924 232.406 63.708H231.386C231.394 64.092 231.47 64.436 231.614 64.74C231.758 65.044 231.954 65.3 232.202 65.508C232.45 65.708 232.734 65.864 233.054 65.976C233.382 66.08 233.73 66.132 234.098 66.132C234.594 66.132 235.026 66.056 235.394 65.904C235.77 65.744 236.082 65.532 236.33 65.268C236.578 65.004 236.762 64.704 236.882 64.368C237.01 64.024 237.074 63.672 237.074 63.312C237.074 62.824 237.002 62.4 236.858 62.04C236.714 61.672 236.518 61.368 236.27 61.128C236.022 60.88 235.73 60.696 235.394 60.576C235.058 60.456 234.702 60.396 234.326 60.396C234.038 60.396 233.746 60.448 233.45 60.552C233.162 60.648 232.926 60.8 232.742 61.008L232.718 60.984L233.174 58.536H236.606ZM238.414 57.432V60.528H239.23V57.432H238.414ZM244.286 66V57.492H243.506C243.45 57.812 243.346 58.076 243.194 58.284C243.042 58.492 242.854 58.656 242.63 58.776C242.414 58.896 242.17 58.98 241.898 59.028C241.626 59.068 241.346 59.088 241.058 59.088V59.904H243.266V66H244.286ZM250.474 66V57.492H249.694C249.638 57.812 249.534 58.076 249.382 58.284C249.23 58.492 249.042 58.656 248.818 58.776C248.602 58.896 248.358 58.98 248.086 59.028C247.814 59.068 247.534 59.088 247.246 59.088V59.904H249.454V66H250.474ZM253.386 64.668V66H254.718V64.668H253.386ZM261.358 58.512V57.636H255.85V58.596H260.314C259.866 59.068 259.446 59.584 259.054 60.144C258.67 60.704 258.33 61.3 258.034 61.932C257.738 62.556 257.494 63.212 257.302 63.9C257.118 64.58 257.002 65.28 256.954 66H258.094C258.134 65.336 258.246 64.652 258.43 63.948C258.614 63.244 258.85 62.56 259.138 61.896C259.434 61.232 259.77 60.608 260.146 60.024C260.522 59.44 260.926 58.936 261.358 58.512ZM264.426 57.432V60.528H265.242V57.432H264.426ZM262.746 57.432V60.528H263.562V57.432H262.746ZM274.743 66L277.035 57.432H275.895L274.155 64.56H274.131L272.235 57.432H270.999L269.079 64.56H269.055L267.375 57.432H266.211L268.407 66H269.595L271.575 58.8H271.599L273.555 66H274.743Z" fill="#FEFEFE"/>
<path d="M136.108 41.512V40.636H130.6V41.596H135.064C134.616 42.068 134.196 42.584 133.804 43.144C133.42 43.704 133.08 44.3 132.784 44.932C132.488 45.556 132.244 46.212 132.052 46.9C131.868 47.58 131.752 48.28 131.704 49H132.844C132.884 48.336 132.996 47.652 133.18 46.948C133.364 46.244 133.6 45.56 133.888 44.896C134.184 44.232 134.52 43.608 134.896 43.024C135.272 42.44 135.676 41.936 136.108 41.512ZM137.184 47.668V49H138.516V47.668H137.184ZM143.32 49V40.492H142.54C142.484 40.812 142.38 41.076 142.228 41.284C142.076 41.492 141.888 41.656 141.664 41.776C141.448 41.896 141.204 41.98 140.932 42.028C140.66 42.068 140.38 42.088 140.092 42.088V42.904H142.3V49H143.32ZM146.232 47.668V49H147.564V47.668H146.232ZM148.624 43.504H149.644C149.636 43.248 149.66 42.996 149.716 42.748C149.78 42.492 149.88 42.264 150.016 42.064C150.152 41.864 150.324 41.704 150.532 41.584C150.748 41.456 151.004 41.392 151.3 41.392C151.524 41.392 151.736 41.428 151.936 41.5C152.136 41.572 152.308 41.676 152.452 41.812C152.604 41.948 152.724 42.112 152.812 42.304C152.9 42.488 152.944 42.696 152.944 42.928C152.944 43.224 152.896 43.484 152.8 43.708C152.712 43.932 152.576 44.14 152.392 44.332C152.216 44.524 151.992 44.716 151.72 44.908C151.448 45.092 151.132 45.296 150.772 45.52C150.476 45.696 150.192 45.884 149.92 46.084C149.648 46.284 149.404 46.516 149.188 46.78C148.972 47.044 148.792 47.356 148.648 47.716C148.512 48.068 148.424 48.496 148.384 49H153.94V48.1H149.572C149.62 47.836 149.72 47.604 149.872 47.404C150.032 47.196 150.22 47.004 150.436 46.828C150.66 46.652 150.904 46.488 151.168 46.336C151.432 46.176 151.696 46.016 151.96 45.856C152.224 45.688 152.48 45.512 152.728 45.328C152.976 45.144 153.196 44.94 153.388 44.716C153.58 44.484 153.732 44.224 153.844 43.936C153.964 43.648 154.024 43.316 154.024 42.94C154.024 42.54 153.952 42.188 153.808 41.884C153.672 41.58 153.484 41.328 153.244 41.128C153.004 40.92 152.72 40.764 152.392 40.66C152.072 40.548 151.728 40.492 151.36 40.492C150.912 40.492 150.512 40.568 150.16 40.72C149.808 40.872 149.512 41.084 149.272 41.356C149.04 41.62 148.868 41.936 148.756 42.304C148.644 42.672 148.6 43.072 148.624 43.504ZM158.556 49V40.492H157.776C157.72 40.812 157.616 41.076 157.464 41.284C157.312 41.492 157.124 41.656 156.9 41.776C156.684 41.896 156.44 41.98 156.168 42.028C155.896 42.068 155.616 42.088 155.328 42.088V42.904H157.536V49H158.556ZM164.255 39.568V51.556H165.071V39.568H164.255ZM173.339 42.664H174.359C174.295 41.96 174.055 41.424 173.639 41.056C173.223 40.68 172.663 40.492 171.959 40.492C171.351 40.492 170.847 40.62 170.447 40.876C170.047 41.132 169.727 41.472 169.487 41.896C169.247 42.32 169.075 42.808 168.971 43.36C168.875 43.904 168.827 44.468 168.827 45.052C168.827 45.5 168.859 45.964 168.923 46.444C168.995 46.924 169.135 47.364 169.343 47.764C169.551 48.164 169.847 48.492 170.231 48.748C170.615 49.004 171.123 49.132 171.755 49.132C172.291 49.132 172.739 49.044 173.099 48.868C173.467 48.684 173.759 48.456 173.975 48.184C174.199 47.904 174.359 47.596 174.455 47.26C174.551 46.924 174.599 46.6 174.599 46.288C174.599 45.896 174.539 45.532 174.419 45.196C174.299 44.86 174.127 44.568 173.903 44.32C173.687 44.072 173.415 43.88 173.087 43.744C172.767 43.6 172.403 43.528 171.995 43.528C171.531 43.528 171.119 43.616 170.759 43.792C170.407 43.968 170.111 44.252 169.871 44.644L169.847 44.62C169.855 44.292 169.887 43.94 169.943 43.564C169.999 43.188 170.099 42.84 170.243 42.52C170.395 42.192 170.603 41.924 170.867 41.716C171.131 41.5 171.479 41.392 171.911 41.392C172.319 41.392 172.647 41.508 172.895 41.74C173.143 41.972 173.291 42.28 173.339 42.664ZM171.803 44.428C172.091 44.428 172.343 44.48 172.559 44.584C172.775 44.688 172.955 44.828 173.099 45.004C173.243 45.172 173.347 45.376 173.411 45.616C173.483 45.848 173.519 46.096 173.519 46.36C173.519 46.608 173.479 46.848 173.399 47.08C173.327 47.304 173.219 47.504 173.075 47.68C172.931 47.856 172.751 47.996 172.535 48.1C172.327 48.196 172.083 48.244 171.803 48.244C171.523 48.244 171.271 48.196 171.047 48.1C170.831 47.996 170.647 47.86 170.495 47.692C170.351 47.524 170.239 47.324 170.159 47.092C170.079 46.86 170.039 46.612 170.039 46.348C170.039 46.084 170.075 45.836 170.147 45.604C170.227 45.364 170.343 45.16 170.495 44.992C170.647 44.816 170.831 44.68 171.047 44.584C171.263 44.48 171.515 44.428 171.803 44.428ZM175.555 47.668V49H176.887V47.668H175.555ZM180.035 44.14V45.004C180.227 44.98 180.431 44.968 180.647 44.968C180.903 44.968 181.139 45.004 181.355 45.076C181.579 45.14 181.771 45.244 181.931 45.388C182.091 45.524 182.219 45.696 182.315 45.904C182.411 46.104 182.459 46.336 182.459 46.6C182.459 46.856 182.407 47.088 182.303 47.296C182.207 47.496 182.075 47.668 181.907 47.812C181.739 47.948 181.543 48.056 181.319 48.136C181.095 48.208 180.859 48.244 180.611 48.244C180.027 48.244 179.583 48.072 179.279 47.728C178.975 47.376 178.815 46.924 178.799 46.372H177.779C177.771 46.812 177.831 47.204 177.959 47.548C178.095 47.892 178.287 48.184 178.535 48.424C178.783 48.656 179.083 48.832 179.435 48.952C179.787 49.072 180.179 49.132 180.611 49.132C181.011 49.132 181.387 49.08 181.739 48.976C182.099 48.864 182.411 48.7 182.675 48.484C182.939 48.268 183.147 48 183.299 47.68C183.459 47.352 183.539 46.976 183.539 46.552C183.539 46.04 183.411 45.596 183.155 45.22C182.907 44.844 182.523 44.6 182.003 44.488V44.464C182.339 44.312 182.619 44.088 182.843 43.792C183.067 43.496 183.179 43.156 183.179 42.772C183.179 42.38 183.111 42.04 182.975 41.752C182.847 41.464 182.667 41.228 182.435 41.044C182.203 40.86 181.927 40.724 181.607 40.636C181.295 40.54 180.955 40.492 180.587 40.492C180.163 40.492 179.787 40.56 179.459 40.696C179.139 40.832 178.871 41.02 178.655 41.26C178.439 41.5 178.271 41.788 178.151 42.124C178.039 42.46 177.975 42.832 177.959 43.24H178.979C178.979 42.992 179.011 42.756 179.075 42.532C179.139 42.308 179.235 42.112 179.363 41.944C179.499 41.776 179.667 41.644 179.867 41.548C180.075 41.444 180.315 41.392 180.587 41.392C181.019 41.392 181.379 41.508 181.667 41.74C181.955 41.964 182.099 42.304 182.099 42.76C182.099 42.984 182.055 43.184 181.967 43.36C181.879 43.536 181.759 43.684 181.607 43.804C181.463 43.916 181.291 44.004 181.091 44.068C180.899 44.124 180.695 44.152 180.479 44.152H180.263C180.223 44.152 180.183 44.152 180.143 44.152C180.111 44.152 180.075 44.148 180.035 44.14ZM189.247 41.536V40.636H185.047L184.255 45.052L185.131 45.1C185.331 44.86 185.559 44.668 185.815 44.524C186.079 44.372 186.379 44.296 186.715 44.296C187.003 44.296 187.263 44.344 187.495 44.44C187.735 44.536 187.939 44.672 188.107 44.848C188.275 45.016 188.403 45.22 188.491 45.46C188.587 45.692 188.635 45.948 188.635 46.228C188.635 46.564 188.587 46.86 188.491 47.116C188.395 47.364 188.263 47.572 188.095 47.74C187.935 47.908 187.743 48.036 187.519 48.124C187.303 48.204 187.075 48.244 186.835 48.244C186.579 48.244 186.343 48.208 186.127 48.136C185.919 48.056 185.735 47.948 185.575 47.812C185.423 47.668 185.299 47.504 185.203 47.32C185.115 47.128 185.063 46.924 185.047 46.708H184.027C184.035 47.092 184.111 47.436 184.255 47.74C184.399 48.044 184.595 48.3 184.843 48.508C185.091 48.708 185.375 48.864 185.695 48.976C186.023 49.08 186.371 49.132 186.739 49.132C187.235 49.132 187.667 49.056 188.035 48.904C188.411 48.744 188.723 48.532 188.971 48.268C189.219 48.004 189.403 47.704 189.523 47.368C189.651 47.024 189.715 46.672 189.715 46.312C189.715 45.824 189.643 45.4 189.499 45.04C189.355 44.672 189.159 44.368 188.911 44.128C188.663 43.88 188.371 43.696 188.035 43.576C187.699 43.456 187.343 43.396 186.967 43.396C186.679 43.396 186.387 43.448 186.091 43.552C185.803 43.648 185.567 43.8 185.383 44.008L185.359 43.984L185.815 41.536H189.247ZM190.791 47.668V49H192.123V47.668H190.791ZM196.927 49V40.492H196.147C196.091 40.812 195.987 41.076 195.835 41.284C195.683 41.492 195.495 41.656 195.271 41.776C195.055 41.896 194.811 41.98 194.539 42.028C194.267 42.068 193.987 42.088 193.699 42.088V42.904H195.907V49H196.927ZM199.371 43.504H200.391C200.383 43.248 200.407 42.996 200.463 42.748C200.527 42.492 200.627 42.264 200.763 42.064C200.899 41.864 201.071 41.704 201.279 41.584C201.495 41.456 201.751 41.392 202.047 41.392C202.271 41.392 202.483 41.428 202.683 41.5C202.883 41.572 203.055 41.676 203.199 41.812C203.351 41.948 203.471 42.112 203.559 42.304C203.647 42.488 203.691 42.696 203.691 42.928C203.691 43.224 203.643 43.484 203.547 43.708C203.459 43.932 203.323 44.14 203.139 44.332C202.963 44.524 202.739 44.716 202.467 44.908C202.195 45.092 201.879 45.296 201.519 45.52C201.223 45.696 200.939 45.884 200.667 46.084C200.395 46.284 200.151 46.516 199.935 46.78C199.719 47.044 199.539 47.356 199.395 47.716C199.259 48.068 199.171 48.496 199.131 49H204.687V48.1H200.319C200.367 47.836 200.467 47.604 200.619 47.404C200.779 47.196 200.967 47.004 201.183 46.828C201.407 46.652 201.651 46.488 201.915 46.336C202.179 46.176 202.443 46.016 202.707 45.856C202.971 45.688 203.227 45.512 203.475 45.328C203.723 45.144 203.943 44.94 204.135 44.716C204.327 44.484 204.479 44.224 204.591 43.936C204.711 43.648 204.771 43.316 204.771 42.94C204.771 42.54 204.699 42.188 204.555 41.884C204.419 41.58 204.231 41.328 203.991 41.128C203.751 40.92 203.467 40.764 203.139 40.66C202.819 40.548 202.475 40.492 202.107 40.492C201.659 40.492 201.259 40.568 200.907 40.72C200.555 40.872 200.259 41.084 200.019 41.356C199.787 41.62 199.615 41.936 199.503 42.304C199.391 42.672 199.347 43.072 199.371 43.504ZM210.303 45.46L211.755 41.464H211.779L213.207 45.46H210.303ZM211.155 40.432L207.819 49H208.983L209.943 46.42H213.567L214.503 49H215.763L212.415 40.432H211.155ZM216.152 40.432V49H217.232V41.872H217.256L219.932 49H220.904L223.58 41.872H223.604V49H224.684V40.432H223.124L220.412 47.632L217.712 40.432H216.152Z" fill="#FEFEFE"/>
<rect x="102.5" y="0.5" width="246" height="89" rx="1.5" fill="#050505" fill-opacity="0.05" stroke="#FEFEFE"/>
<path d="M101.5 41H0" stroke="#FEFEFE"/>
</svg>
