<svg width="64" height="64" viewBox="0 0 64 64" fill="none" xmlns="http://www.w3.org/2000/svg">
<rect width="64" height="64" fill="#050505"/>
<path d="M48 26.0654V18.0313C48 16.9101 47.1017 16 46.0012 16H18.3751C17.2719 16 16.3764 16.9101 16.3764 18.0313L16.3735 26.0683H18.4313L18.4341 18.0913H45.9423V26.0683L48 26.0654ZM41.65 24.9271C41.3665 24.3393 40.7882 23.977 40.1453 23.977H39.2667C38.5873 23.977 37.9809 24.3878 37.7199 25.0212L32.7931 36.9496H32.2373L27.246 25.0126C26.9821 24.3821 26.3758 23.9741 25.702 23.9741H24.8206C24.158 23.9741 23.5573 24.3707 23.2878 24.9841L18.027 36.9496H17.5498L15.1945 31.6915C14.9222 31.0867 14.3243 30.693 13.6674 30.693H9.813C9.37788 29.586 8.31393 28.8014 7.07032 28.8014C5.44212 28.8014 4.11429 30.1481 4.11429 31.8056C4.11429 33.4604 5.43931 34.8099 7.07032 34.8099C8.36166 34.8099 9.45929 33.9625 9.86073 32.7842H13.4203L15.7756 38.0423C16.0479 38.65 16.6458 39.0409 17.3027 39.0409H18.2712C18.9309 39.0409 19.5345 38.6443 19.804 38.0309L25.0648 26.0654H25.4466L30.4379 38.0024C30.7017 38.6329 31.3081 39.0409 31.9818 39.0409H33.043C33.7195 39.0409 34.3287 38.63 34.5898 37.9967L39.5165 26.0683H39.9039L45.8384 39.0437H48L41.65 24.9271ZM7.07032 33.0667C6.38535 33.0667 5.82952 32.5018 5.82952 31.8056C5.82952 31.1095 6.38535 30.5446 7.07032 30.5446C7.75529 30.5446 8.31112 31.1095 8.31112 31.8056C8.31112 32.5018 7.75529 33.0667 7.07032 33.0667Z" fill="#FEFEFE"/>
<path d="M45.9423 45.4887H18.4341V41.2977H16.3763V45.5486C16.3763 46.6699 17.2747 47.58 18.3751 47.58H45.9984C47.1017 47.58 47.9972 46.6699 47.9972 45.5486V41.2977H45.9395V45.4887H45.9423Z" fill="#FEFEFE"/>
</svg>
