<svg width="14" height="14" viewBox="0 0 14 14" fill="none" xmlns="http://www.w3.org/2000/svg">
<path fill-rule="evenodd" clip-rule="evenodd" d="M6.83333 0H7.16667C8.91584 0.000484652 9.16186 0.00905786 9.88608 0.0421022C10.6312 0.0760852 11.14 0.194428 11.5853 0.367483C12.0456 0.546345 12.4359 0.785699 12.8251 1.17485C13.2143 1.56403 13.4536 1.9544 13.6325 2.41472C13.8055 2.85997 13.9239 3.36882 13.9579 4.11389C13.9919 4.86052 14 5.0989 14 7C14 8.90108 13.9919 9.13946 13.9579 9.88608C13.9239 10.6312 13.8055 11.14 13.6325 11.5853C13.4536 12.0456 13.2143 12.4359 12.8251 12.8251C12.4359 13.2143 12.0456 13.4536 11.5853 13.6325C11.14 13.8055 10.6312 13.9239 9.88608 13.9579C9.13946 13.9919 8.90108 14 7 14C5.0989 14 4.86052 13.9919 4.11389 13.9579C3.36882 13.9239 2.85997 13.8055 2.41472 13.6325C1.9544 13.4536 1.56403 13.2143 1.17485 12.8251C0.785699 12.4359 0.546345 12.0456 0.367483 11.5853C0.194428 11.14 0.0760852 10.6312 0.0421022 9.88608C0.00905786 9.16186 0.000484652 8.91584 0 7.16667V6.83333C0.000484652 5.08414 0.00905786 4.83812 0.0421022 4.11389C0.0760852 3.36882 0.194428 2.85997 0.367483 2.41472C0.546345 1.9544 0.785699 1.56403 1.17485 1.17485C1.56403 0.785699 1.9544 0.546345 2.41472 0.367483C2.85997 0.194428 3.36882 0.0760852 4.11389 0.0421022C4.83812 0.00905786 5.08414 0.000484652 6.83333 0ZM7.16383 1.26126H6.83617C5.11716 1.26169 4.88736 1.26939 4.17138 1.30206C3.48889 1.33318 3.11824 1.44721 2.87158 1.54308C2.54484 1.67006 2.31166 1.82175 2.06672 2.06672C1.82175 2.31166 1.67006 2.54484 1.54308 2.87158C1.44721 3.11824 1.33318 3.48889 1.30206 4.17138C1.26838 4.90951 1.26124 5.13091 1.26124 7C1.26124 8.86907 1.26838 9.09047 1.30206 9.82859C1.33318 10.5111 1.44721 10.8817 1.54308 11.1284C1.67006 11.4551 1.82178 11.6883 2.06672 11.9333C2.31166 12.1782 2.54484 12.3299 2.87158 12.4569C3.11824 12.5528 3.48889 12.6668 4.17138 12.6979C4.90942 12.7316 5.13077 12.7387 7 12.7387C8.86921 12.7387 9.09058 12.7316 9.82859 12.6979C10.5111 12.6668 10.8817 12.5528 11.1284 12.4569C11.4551 12.3299 11.6883 12.1782 11.9333 11.9333C12.1782 11.6883 12.3299 11.4551 12.4569 11.1284C12.5528 10.8817 12.6668 10.5111 12.6979 9.82859C12.7316 9.09047 12.7387 8.86907 12.7387 7C12.7387 5.13091 12.7316 4.90951 12.6979 4.17138C12.6668 3.48889 12.5528 3.11824 12.4569 2.87158C12.3299 2.54484 12.1782 2.31166 11.9333 2.06672C11.6883 1.82175 11.4551 1.67006 11.1284 1.54308C10.8817 1.44721 10.5111 1.33318 9.82859 1.30206C9.11261 1.26939 8.88282 1.26169 7.16383 1.26126ZM10.5946 7C10.5946 5.01473 8.98524 3.40539 7 3.40539C5.01473 3.40539 3.40539 5.01473 3.40539 7C3.40539 8.98524 5.01473 10.5946 7 10.5946C8.98524 10.5946 10.5946 8.98524 10.5946 7ZM7 4.66665C5.71132 4.66665 4.66665 5.71132 4.66665 7C4.66665 8.28866 5.71132 9.33333 7 9.33333C8.28866 9.33333 9.33333 8.28866 9.33333 7C9.33333 5.71132 8.28866 4.66665 7 4.66665ZM11.5766 3.26337C11.5766 2.79945 11.2005 2.42336 10.7366 2.42336C10.2727 2.42336 9.89662 2.79945 9.89662 3.26337C9.89662 3.7273 10.2727 4.10336 10.7366 4.10336C11.2005 4.10336 11.5766 3.7273 11.5766 3.26337Z" fill="#D6D6D6"/>
</svg>
