<svg width="14" height="14" viewBox="0 0 14 14" fill="none" xmlns="http://www.w3.org/2000/svg">
<path fill-rule="evenodd" clip-rule="evenodd" d="M0 2.11379C0 0.946083 0.946043 0 2.1137 0H11.8851C13.0528 0 14 0.946083 14 2.11379V11.885C14 13.0527 13.0528 14 11.8851 14H2.1137C0.946043 14 0 13.0527 0 11.885V2.11379ZM4.37455 3.465C4.36085 2.84361 3.91762 2.37116 3.19796 2.37116C2.4777 2.37116 2.00766 2.84361 2.00766 3.465C2.00766 4.07268 2.464 4.55883 3.17055 4.55883H3.18426C3.91762 4.55883 4.37455 4.07268 4.37455 3.465ZM9.40085 5.27435C10.783 5.27435 11.8255 6.17754 11.8255 8.11975V11.7539H9.72255V8.36402C9.72255 7.51206 9.41277 6.93417 8.65617 6.93417C8.07234 6.93417 7.72681 7.32142 7.57191 7.70271C7.5183 7.83974 7.50638 8.02443 7.50638 8.21507V11.7539H5.4034C5.4034 11.7539 5.42723 6.01668 5.4034 5.42091H7.50638V6.31457C7.78638 5.88561 8.28681 5.27435 9.40085 5.27435ZM4.23574 5.42091H2.13217V11.7539H4.23574V5.42091Z" fill="#D6D6D6"/>
</svg>
