<svg width="120" height="30" viewBox="0 0 120 30" xmlns="http://www.w3.org/2000/svg">
<path d="M45.2134 21.8801V7.79211H47.173V21.8801H45.2134Z" fill="#FEFEFE"/>
<path d="M64.3424 23.0537H61.9978L60.3135 21.1673C59.2148 21.8422 57.9422 22.181 56.6669 22.181C53.1781 22.181 49.6892 19.5384 49.6892 14.828C49.6892 10.1175 53.1781 7.4967 56.6669 7.4967C60.1558 7.4967 63.6447 10.1202 63.6447 14.828C63.6447 16.4975 63.2036 17.8987 62.4871 19.0126L61.1477 17.5084C61.4845 16.7604 61.685 15.866 61.685 14.828C61.685 11.1529 59.2549 9.28277 56.6669 9.28277C54.079 9.28277 51.6489 11.1501 51.6489 14.828C51.6489 18.5058 54.079 20.3922 56.6669 20.3922C56.8033 20.3922 56.9396 20.3868 57.076 20.3759C58.0545 20.3027 58.5116 19.1102 57.862 18.3676L57.1107 17.4949L58.4448 16.3213L64.3424 23.0537Z" fill="#FEFEFE"/>
<path d="M71.5259 14.2099C71.2505 14.1693 70.9778 14.1503 70.7212 14.1503C69.1733 14.1503 68.1333 14.9851 68.1333 17.091V21.88H66.2913V12.3236H68.0932V13.9931C68.7802 12.5215 69.9566 12.1637 70.9163 12.1637C71.1703 12.1637 71.427 12.2044 71.5232 12.2233V14.2099H71.5259Z" fill="#FEFEFE"/>
<path d="M82.1154 17.0908C82.1154 20.0125 80.1156 22.178 77.2924 22.178C74.4692 22.178 72.4722 20.0125 72.4722 17.0908C72.4722 14.1908 74.4719 12.0226 77.2924 12.0226C80.1129 12.0226 82.1154 14.1908 82.1154 17.0908ZM80.2332 17.0908C80.2332 14.8846 78.8617 13.6921 77.2924 13.6921C75.7231 13.6921 74.3516 14.8846 74.3516 17.0908C74.3516 19.3159 75.7231 20.5084 77.2924 20.5084C78.8617 20.5084 80.2332 19.3159 80.2332 17.0908Z" fill="#FEFEFE"/>
<path d="M86.3825 12.3237H88.4223V14.0122H86.3825V18.9801C86.3825 19.8556 86.7354 20.2919 87.6951 20.2919C87.9304 20.2919 88.2646 20.2513 88.4196 20.2133V21.8042C88.2619 21.8639 87.7914 21.9831 87.1658 21.9831C85.559 21.9831 84.5404 20.9912 84.5404 19.262V14.0122H82.7385V12.3237H83.2492C84.2677 12.3237 84.6982 11.6868 84.6982 10.852V9.30176H86.3851V12.3237H86.3825Z" fill="#FEFEFE"/>
<path d="M98.8569 19.1589C98.3275 20.8474 96.8197 22.1782 94.6221 22.1782C92.093 22.1782 89.8794 20.3108 89.8794 17.072C89.8794 14.0718 92.0155 12.0255 94.3868 12.0255C97.2876 12.0255 98.9157 14.0528 98.9157 17.0341C98.9157 17.2726 98.897 17.5111 98.8756 17.6304H91.7802C91.8203 19.3378 93.0341 20.5303 94.6221 20.5303C96.1513 20.5303 96.9159 19.6766 97.2688 18.6033L98.8569 19.1589ZM96.9935 16.118C96.9534 14.7466 96.0711 13.6734 94.4056 13.6734C92.8576 13.6734 91.9166 14.8848 91.839 16.118H96.9935Z" fill="#FEFEFE"/>
<path d="M102.233 17.0908C102.233 19.2753 103.586 20.4488 105.115 20.4488C106.88 20.4488 107.527 19.2373 107.741 18.4812L109.369 19.1967C108.917 20.5681 107.564 22.178 105.115 22.178C102.372 22.178 100.351 19.9935 100.351 17.0908C100.351 14.1095 102.41 12.0226 105.094 12.0226C107.602 12.0226 108.895 13.6135 109.288 15.0635L107.623 15.779C107.388 14.844 106.701 13.7517 105.094 13.7517C103.607 13.7544 102.233 14.8657 102.233 17.0908Z" fill="#FEFEFE"/>
<path d="M112.911 21.8799H111.069V7.49377H112.911V13.4347C113.598 12.421 114.694 12.0443 115.771 12.0443C118.025 12.0443 119.142 13.6922 119.142 15.8197V21.8799H117.3V16.1368C117.3 14.8061 116.752 13.7328 115.106 13.7328C113.694 13.7328 112.951 14.8467 112.911 16.2561V21.8799Z" fill="#FEFEFE"/>
<path d="M41.7942 9.56184V1.92971C41.7942 0.864577 40.9387 0 39.8907 0H13.5812C12.5305 0 11.6777 0.864577 11.6777 1.92971L11.675 9.56455H13.6347L13.6373 1.98663H39.8346V9.56455L41.7942 9.56184ZM35.7469 8.48044C35.4768 7.92212 34.9261 7.57792 34.3139 7.57792H33.4771C32.8301 7.57792 32.2527 7.9682 32.004 8.56988L27.3121 19.9015H26.7827L22.0293 8.56175C21.778 7.96278 21.2006 7.57521 20.5589 7.57521H19.7195C19.0885 7.57521 18.5164 7.95194 18.2597 8.53465L13.2497 19.9015H12.7952L10.5522 14.9065C10.2928 14.3319 9.72338 13.9579 9.09779 13.9579H5.42713C5.01274 12.9063 3.9995 12.161 2.81516 12.161C1.26455 12.161 0 13.4402 0 15.0149C0 16.5869 1.26187 17.8688 2.81516 17.8688C4.04495 17.8688 5.09027 17.0639 5.47258 15.9445H8.86253L11.1056 20.9396C11.3649 21.5168 11.9343 21.8882 12.5599 21.8882H13.4823C14.1105 21.8882 14.6853 21.5114 14.942 20.9287L19.9521 9.56184H20.3156L25.0691 20.9016C25.3204 21.5006 25.8978 21.8882 26.5395 21.8882H27.55C28.1943 21.8882 28.7745 21.4979 29.0231 20.8962L33.715 9.56455H34.084L39.7357 21.8909H41.7942L35.7469 8.48044ZM2.81516 16.2128C2.16283 16.2128 1.63349 15.6762 1.63349 15.0149C1.63349 14.3536 2.16283 13.817 2.81516 13.817C3.46748 13.817 3.99683 14.3536 3.99683 15.0149C3.99683 15.6762 3.46748 16.2128 2.81516 16.2128Z" fill="#FEFEFE"/>
<path d="M39.8346 28.0132H13.6374V24.0319H11.6777V28.0702C11.6777 29.1353 12.5332 29.9999 13.5812 29.9999H39.8881C40.9388 29.9999 41.7916 29.1353 41.7916 28.0702V24.0319H39.832V28.0132H39.8346Z" fill="#FEFEFE"/>
</svg>
