<svg width="30" height="30" viewBox="0 0 30 30" fill="none" xmlns="http://www.w3.org/2000/svg">
<rect width="30" height="30" fill="#171717"/>
<path d="M26.5063 14.1497C26.5097 14.3812 26.4809 14.6122 26.4201 14.8357C26.3593 15.0591 26.2672 15.2733 26.1464 15.4709C26.026 15.6686 25.8782 15.8486 25.7075 16.0053C25.5369 16.162 25.3451 16.2938 25.1377 16.3968C25.1424 16.4585 25.1462 16.5206 25.1483 16.5827C25.1534 16.7065 25.1534 16.8305 25.1483 16.9544C25.1462 17.0165 25.1424 17.0786 25.1377 17.1403C25.1377 20.9249 20.7279 24 15.2874 24C9.8469 24 5.43707 20.9249 5.43707 17.1403C5.43242 17.0786 5.42862 17.0165 5.42651 16.9544C5.42142 16.8305 5.42142 16.7065 5.42651 16.5827C5.42862 16.5206 5.43242 16.4585 5.43707 16.3968C5.11214 16.2475 4.82354 16.0293 4.59125 15.7574C4.35896 15.4855 4.18852 15.1664 4.09173 14.8221C3.9951 14.4777 3.97451 14.1164 4.0314 13.7633C4.08829 13.4101 4.2213 13.0735 4.4212 12.7769C4.62092 12.4803 4.88279 12.2307 5.18863 12.0454C5.49446 11.8602 5.83695 11.7437 6.19231 11.704C6.54773 11.6642 6.90755 11.7021 7.24685 11.8151C7.58616 11.9282 7.89682 12.1137 8.15731 12.3587C8.64088 12.0309 9.14754 11.7386 9.6733 11.4839C10.1992 11.2296 10.7428 11.0134 11.2999 10.8377C11.8571 10.6619 12.4265 10.5272 13.0031 10.4338C13.5796 10.3405 14.1625 10.2894 14.7467 10.2805L15.997 4.41763C16.011 4.34962 16.0384 4.28542 16.0777 4.22797C16.1166 4.17095 16.1668 4.12195 16.2247 4.08436C16.283 4.04676 16.348 4.021 16.4165 4.00833C16.4845 3.99608 16.5546 3.99734 16.6222 4.01213L20.7617 4.84003C21.1794 4.12237 22.0563 3.81487 22.8306 4.11393C23.6048 4.41298 24.0475 5.23032 23.8743 6.04217C23.7016 6.85402 22.964 7.42003 22.1353 7.37737C21.3061 7.33471 20.6307 6.69604 20.542 5.87068L16.9263 5.11036L15.8281 10.3819C16.4051 10.3941 16.9808 10.4482 17.5502 10.5432C18.6904 10.7333 19.7972 11.087 20.8364 11.5933C21.3555 11.8459 21.8556 12.1356 22.333 12.4601C22.6762 12.1305 23.1075 11.9074 23.5748 11.8176C24.0421 11.7275 24.5255 11.7746 24.9666 11.9532C25.4078 12.1317 25.7879 12.4341 26.0611 12.8238C26.3343 13.2135 26.4889 13.674 26.5063 14.1497ZM9.73877 16.486C9.82409 16.6908 9.94828 16.8771 10.1054 17.0338C10.2621 17.1909 10.4484 17.3151 10.6533 17.4005C10.8583 17.4853 11.0781 17.5289 11.2999 17.5289C11.9834 17.5289 12.5992 17.117 12.8611 16.486C13.1226 15.8545 12.9777 15.128 12.4945 14.6447C12.0113 14.1615 11.2847 14.0166 10.6533 14.2781C10.0222 14.54 9.61036 15.1558 9.61036 15.8393C9.61036 16.061 9.65386 16.2807 9.73877 16.486ZM19.4159 20.5418C19.5025 20.4573 19.5519 20.342 19.5536 20.2212C19.5553 20.1 19.5084 19.9834 19.4239 19.8968C19.3395 19.8102 19.2241 19.7608 19.1033 19.7591C18.9821 19.7574 18.8655 19.8043 18.7679 19.8774C18.5139 20.0596 18.2448 20.22 17.9637 20.3568C17.6825 20.4937 17.3903 20.6066 17.0902 20.6943C16.7903 20.7817 16.4832 20.8438 16.1727 20.8797C15.8618 20.9156 15.5489 20.9249 15.2367 20.908C14.925 20.922 14.6124 20.9093 14.3028 20.8705C13.9931 20.832 13.6873 20.767 13.3887 20.6761C13.0897 20.5858 12.7995 20.47 12.5203 20.3306C12.2411 20.1912 11.9741 20.0282 11.7223 19.8436C11.6349 19.7718 11.5238 19.735 11.4106 19.7405C11.2974 19.746 11.1905 19.7938 11.1103 19.8736C11.0305 19.9538 10.9827 20.0607 10.9772 20.1739C10.9717 20.2871 11.0085 20.3982 11.0803 20.4856C11.3772 20.7095 11.6928 20.9072 12.0235 21.077C12.3543 21.2468 12.6994 21.3875 13.0542 21.4981C13.409 21.6088 13.7727 21.6886 14.1414 21.7372C14.5102 21.7854 14.8823 21.8018 15.2536 21.7866C15.6249 21.8018 15.997 21.7854 16.3658 21.7372C17.1043 21.6401 17.8207 21.4167 18.4837 21.077C18.8144 20.9072 19.1299 20.7095 19.4269 20.4856L19.4159 20.5418ZM19.1059 17.664C19.3348 17.6666 19.5621 17.6222 19.7737 17.5344C19.9853 17.4461 20.1766 17.316 20.3363 17.1517C20.496 16.9873 20.6202 16.7922 20.7021 16.578C20.7841 16.3641 20.8216 16.1358 20.8124 15.9069C20.8124 15.2234 20.4005 14.6076 19.7695 14.3457C19.138 14.0842 18.4114 14.2291 17.9282 14.7123C17.445 15.1955 17.3001 15.9221 17.5616 16.5535C17.8235 17.1846 18.4393 17.5964 19.1228 17.5964L19.1059 17.664Z" fill="#F8F8F8"/>
</svg>
