<svg width="30" height="30" viewBox="0 0 30 30" fill="none" xmlns="http://www.w3.org/2000/svg">
<rect width="30" height="30" fill="#171717"/>
<path d="M26 6.00029C25.0424 6.67577 23.9821 7.1924 22.86 7.53029C22.2577 6.8378 21.4573 6.34698 20.567 6.12422C19.6767 5.90145 18.7395 5.95749 17.8821 6.28474C17.0247 6.612 16.2884 7.19469 15.773 7.95401C15.2575 8.71332 14.9877 9.61263 15 10.5303V11.5303C13.2426 11.5759 11.5013 11.1861 9.93101 10.3957C8.36074 9.60537 7.01032 8.43893 6 7.00029C6 7.00029 2 16.0003 11 20.0003C8.94053 21.3983 6.48716 22.0992 4 22.0003C13 27.0003 24 22.0003 24 10.5003C23.9991 10.2217 23.9723 9.94388 23.92 9.67029C24.9406 8.66378 25.6608 7.393 26 6.00029Z" fill="#F8F8F8"/>
</svg>
