<?xml version="1.0" encoding="utf-8"?>
<!-- Generator: Adobe Illustrator 24.0.2, SVG Export Plug-In . SVG Version: 6.00 Build 0)  -->
<svg version="1.1" id="Layer_1" xmlns="http://www.w3.org/2000/svg" xmlns:xlink="http://www.w3.org/1999/xlink" x="0px" y="0px"
	 viewBox="0 0 432 108" style="enable-background:new 0 0 432 108;" xml:space="preserve">
<style type="text/css">
	.st0{fill:#FFFFFF;}
</style>
<path class="st0" d="M159.99,41.3L146.1,66.48h4.71l3.42-6.19h15.9l3.42,6.19h4.71L164.38,41.3H159.99z M156.46,56.19l5.72-10.36
	l5.72,10.36H156.46z M148.15,41.3h-24.71v4.1h10.11v21.08h4.5V45.4h10.11V41.3z M394.59,55.73h5.43v-4.1h-4.38
	c-1.22,0-1.73-0.5-1.73-1.73v-4.5h15.04v2.73h4.5v-1.65c0-3.67-1.51-5.18-5.18-5.18h-13.67c-3.67,0-5.18,1.51-5.18,5.18v4.06
	C389.41,54.22,390.92,55.73,394.59,55.73z M408.98,51.63h-6.18v4.1h5.14c1.22,0,1.73,0.5,1.73,1.73v4.93h-15.76v-3.16h-4.5v2.09
	c0,3.67,1.51,5.18,5.18,5.18h14.39c3.67,0,5.18-1.51,5.18-5.18v-4.5C414.16,53.14,412.65,51.63,408.98,51.63z M336.1,41.3
	l-13.89,25.18h4.71l3.42-6.19h15.9l3.42,6.19h4.71L340.49,41.3H336.1z M332.58,56.19l5.72-10.36l5.72,10.36H332.58z M97.04,55.73
	h5.44v-4.1h-4.4c-1.22,0-1.73-0.5-1.73-1.73v-4.5h15.04v2.73h4.5v-1.65c0-3.67-1.51-5.18-5.18-5.18H97.04
	c-3.67,0-5.18,1.51-5.18,5.18v4.06C91.86,54.22,93.37,55.73,97.04,55.73z M111.43,51.63h-6.17v4.1h5.13c1.22,0,1.73,0.5,1.73,1.73
	v4.93H96.36v-3.16h-4.5v2.09c0,3.67,1.51,5.18,5.18,5.18h14.39c3.67,0,5.18-1.51,5.18-5.18v-4.5
	C116.61,53.14,115.1,51.63,111.43,51.63z M324.27,41.3h-24.71v4.1h10.11v21.08h4.5V45.4h10.11V41.3z M268.55,66.48h24.75v-4.1
	h-20.25v-6.66h12.27v-4.1h-12.27v-6.26l20.25,0.03v-4.1h-24.75V66.48z M204.31,56.19c3.67,0,5.18-1.51,5.18-5.18v-4.53
	c0-3.67-1.51-5.18-5.18-5.18h-19.93v25.18h4.5V56.19h8.31l7.88,10.29h5.47l-8.06-10.29H204.31z M188.87,52.1V45.4h14.03
	c1.47,0,2.09,0.61,2.09,2.09v2.52c0,1.47-0.61,2.09-2.09,2.09H188.87z M364.99,41.3h-4.5v25.18h21.58v-4.1h-17.09V41.3z
	 M228.84,66.48h4.5V52.59l-4.5-5.81V66.48z M244.39,55.65L233.33,41.3h-4.5v0.94l15.56,20.12l11.03-14.3v18.42h4.5V41.3h-4.5
	L244.39,55.65z"/>
<g>
	<path class="st0" d="M55.35,34.68l0.37,2.84l0.78,5.81l3.04,0.35l5.53,0.63l-6.74,6.82l-2.73,2.76l2.73,2.76l4.8,4.86l4.97-0.57
		l-6.97-7.06l12.42-12.58l-13.57-1.55l-1.76-13.52l-3.54,3.54l0.66,4.91L55.35,34.68z M27.02,44.26l5.16-0.59l3.11-0.36l0.36-3.11
		l0.63-5.53l6.82,6.73l2.78,2.75l2.76-2.76l4.79-4.79l-0.66-4.91l-6.91,6.91L33.28,26.19l-1.55,13.57l-13.57,1.55l3.46,3.51
		L27.02,44.26z M36.27,73.1l-0.08-0.72l-0.98-7.93l-3.04-0.35l-5.53-0.63l6.73-6.82l2.73-2.76l-2.73-2.76l-4.8-4.87l-5.02,0.52
		l7.02,7.11L18.16,66.47l13.57,1.55l1.55,13.57l3.61-3.56L36.27,73.1L36.27,73.1z M70.03,62.9l-4.97,0.57l0.01,0.01l-5.53,0.63
		l-3.11,0.36l-0.36,3.11l-0.63,5.53l-6.82-6.74l-2.76-2.73l-2.76,2.73l-4.87,4.81l0.61,4.93l7.03-6.94l12.58,12.42l1.55-13.57
		l13.57-1.55L70.03,62.9z"/>
</g>
</svg>
