<?xml version="1.0" encoding="utf-8"?>
<!-- Generator: Adobe Illustrator 24.0.2, SVG Export Plug-In . SVG Version: 6.00 Build 0)  -->
<svg version="1.1" id="Layer_1" xmlns="http://www.w3.org/2000/svg" xmlns:xlink="http://www.w3.org/1999/xlink" x="0px" y="0px"
	 viewBox="0 0 1920 600" style="enable-background:new 0 0 1920 600;" xml:space="preserve">
<style type="text/css">
	.st0{fill:#636569;}
	.st1{fill:#95694C;}
</style>
<path class="st0" d="M704.84,243.67l-63.12,114.45h21.42l15.53-28.12h72.27l15.54,28.12h21.42l-63.12-114.45H704.84z M688.82,311.35
	l26-47.08l26,47.08H688.82z M651.05,243.67H538.71v18.64h45.95v95.81h20.44v-95.81h45.95V243.67z M1771.2,309.24h24.67v-18.64
	h-19.93c-5.56,0-7.85-2.29-7.85-7.85v-20.43h68.35v12.42h20.44v-7.52c0-16.68-6.87-23.56-23.55-23.56h-62.14
	c-16.67,0-23.54,6.87-23.54,23.56v18.47C1747.66,302.37,1754.54,309.24,1771.2,309.24z M1836.61,290.59h-28.09v18.64h23.36
	c5.56,0,7.85,2.29,7.85,7.84v22.4h-71.62V325.1h-20.44v9.48c0,16.67,6.87,23.54,23.54,23.54h65.41c16.68,0,23.55-6.87,23.55-23.54
	v-20.44C1860.16,297.46,1853.29,290.59,1836.61,290.59z M1505.35,243.67l-63.12,114.45h21.42l15.53-28.12h72.27l15.54,28.12h21.41
	l-63.12-114.45H1505.35z M1489.32,311.35l26-47.08l26,47.08H1489.32z M418.7,309.24h24.73v-18.64h-19.99
	c-5.56,0-7.84-2.29-7.84-7.85v-20.43h68.35v12.42h20.44v-7.52c0-16.68-6.87-23.56-23.55-23.56H418.7
	c-16.67,0-23.54,6.87-23.54,23.56v18.47C395.16,302.37,402.03,309.24,418.7,309.24z M484.11,290.59h-28.06v18.64h23.31
	c5.56,0,7.85,2.29,7.85,7.84v22.4H415.6V325.1h-20.44v9.48c0,16.67,6.87,23.54,23.54,23.54h65.41c16.68,0,23.54-6.87,23.54-23.54
	v-20.44C507.65,297.46,500.79,290.59,484.11,290.59z M1451.56,243.67h-112.33v18.64h45.95v95.81h20.44v-95.81h45.95V243.67z
	 M1198.29,358.12h112.5v-18.63h-92.06v-30.25h55.76v-18.64h-55.76v-28.44l92.06,0.16v-18.64h-112.5V358.12z M906.28,311.35
	c16.68,0,23.55-6.87,23.55-23.55v-20.59c0-16.68-6.87-23.55-23.55-23.55h-90.59v114.45h20.44v-46.77h37.77l35.8,46.77h24.86
	l-36.63-46.77H906.28z M836.13,292.73v-30.42h63.77c6.7,0,9.48,2.78,9.48,9.49v11.45c0,6.7-2.78,9.48-9.48,9.48H836.13z
	 M1636.65,243.67h-20.44v114.45h98.11v-18.63h-77.67V243.67z M1017.78,358.12h20.44v-63.14l-20.44-26.43V358.12z M1088.47,308.9
	l-50.25-65.23h-20.44v4.29l70.71,91.44l50.12-64.99v83.71h20.44V243.67h-20.44L1088.47,308.9z"/>
<g>
	<path class="st1" d="M229.22,213.56l1.67,12.89l3.54,26.41l13.8,1.58l25.14,2.87l-30.62,31.01l-12.41,12.57l12.41,12.57
		l21.81,22.09l22.59-2.58l-31.67-32.08l56.45-57.18l-61.67-7.05l-7.98-61.46l-16.09,16.09l2.99,22.31L229.22,213.56z M100.42,257.12
		l23.44-2.68l14.13-1.61l1.61-14.13l2.87-25.14l31,30.61l12.65,12.49l12.57-12.57l21.75-21.75l-2.99-22.31l-31.41,31.41
		l-57.17-56.44l-7.04,61.67l-61.67,7.05l15.73,15.93L100.42,257.12z M142.48,388.21l-0.37-3.25l-4.44-36.05l-13.8-1.58l-25.14-2.87
		l30.61-31.01l12.41-12.57l-12.41-12.57l-21.84-22.12l-22.82,2.35l31.92,32.33l-56.44,57.17l61.67,7.05l7.04,61.67l16.39-16.18
		l-2.76-22.41L142.48,388.21z M295.92,341.84l-22.59,2.58l0.05,0.05l-25.14,2.87l-14.13,1.61l-1.61,14.13l-2.87,25.14l-31.01-30.62
		l-12.57-12.41l-12.57,12.41l-22.16,21.87l2.76,22.41l31.96-31.56l57.18,56.45l7.04-61.68l61.67-7.04L295.92,341.84z"/>
</g>
</svg>
