<?xml version="1.0" encoding="utf-8"?>
<!-- Generator: Adobe Illustrator 24.0.2, SVG Export Plug-In . SVG Version: 6.00 Build 0)  -->
<svg version="1.1" id="Layer_1" xmlns="http://www.w3.org/2000/svg" xmlns:xlink="http://www.w3.org/1999/xlink" x="0px" y="0px"

	 viewBox="0 0 40 320" style="enable-background:new 0 0 40 320;" xml:space="preserve">

<style type="text/css">

	.st0{fill:none;stroke:#000000;stroke-width:2;stroke-miterlimit:10;}

</style>

<path id="Path_1125" class="st0" d="M6.76,304c0-6.25,6.47-6.25,6.47-12.5s-6.47-6.25-6.47-12.5s6.47-6.25,6.47-12.5

	s-6.47-6.25-6.47-12.5c0-6.25,6.47-6.25,6.47-12.5s-6.47-6.25-6.47-12.5c0-6.25,6.47-6.25,6.47-12.5s-6.47-6.25-6.47-12.5

	s6.47-6.25,6.47-12.5s-6.47-6.25-6.47-12.5s6.47-6.25,6.47-12.5s-6.47-6.25-6.47-12.5s6.47-6.25,6.47-12.5s-6.47-6.24-6.47-12.49

	c0-6.25,6.47-6.25,6.47-12.5s-6.47-6.25-6.47-12.5s6.47-6.25,6.47-12.5s-6.47-6.25-6.47-12.5c0-6.25,6.47-6.25,6.47-12.5

	s-6.47-6.25-6.47-12.5c0-6.25,6.47-6.25,6.47-12.5s-6.47-6.25-6.47-12.5s6.47-6.25,6.47-12.5s-6.47-6.26-6.47-12.51"/>

</svg>
