<?xml version="1.0" encoding="utf-8"?>
<!-- Generator: Adobe Illustrator 24.0.2, SVG Export Plug-In . SVG Version: 6.00 Build 0)  -->
<svg version="1.1" id="Layer_1" xmlns="http://www.w3.org/2000/svg" xmlns:xlink="http://www.w3.org/1999/xlink" x="0px" y="0px"
	 viewBox="0 0 1920 1908" style="enable-background:new 0 0 1920 1908;" xml:space="preserve">
<style type="text/css">
	.st0{fill:none;stroke:#946A4D;stroke-width:2;stroke-miterlimit:10;}
</style>
<g>
	<path id="Path_1151" class="st0" d="M1418.22,1043.15c-25.39,0-25.39-26.29-50.78-26.29s-25.39,26.29-50.78,26.29
		s-25.39-26.29-50.78-26.29s-25.39,26.29-50.78,26.29c-25.39,0-25.39-26.29-50.78-26.29s-25.39,26.29-50.78,26.29
		c-25.39,0-25.39-26.29-50.78-26.29s-25.39,26.29-50.78,26.29c-25.39,0-25.39-26.29-50.78-26.29s-25.4,26.29-50.79,26.29
		s-25.39-26.29-50.78-26.29s-25.39,26.29-50.78,26.29s-25.39-26.29-50.78-26.29s-25.39,26.29-50.78,26.29s-25.39-26.29-50.78-26.29
		s-25.39,26.29-50.79,26.29c-25.4,0-25.39-26.29-50.78-26.29s-25.39,26.29-50.79,26.29c-25.4,0-25.39-26.29-50.78-26.29
		s-25.39,26.29-50.78,26.29c-25.39,0-25.39-26.29-50.79-26.29s-25.39,26.29-50.78,26.29c-25.39,0-25.4-26.29-50.79-26.29
		s-25.42,26.29-50.82,26.29"/>
	<path id="Path_1165" class="st0" d="M1568.22,967.15c-25.39,0-25.39-26.29-50.78-26.29s-25.39,26.29-50.78,26.29
		s-25.39-26.29-50.78-26.29s-25.39,26.29-50.78,26.29c-25.39,0-25.39-26.29-50.78-26.29s-25.39,26.29-50.78,26.29
		c-25.39,0-25.39-26.29-50.78-26.29s-25.39,26.29-50.78,26.29c-25.39,0-25.39-26.29-50.78-26.29s-25.4,26.29-50.79,26.29
		c-25.39,0-25.39-26.29-50.78-26.29c-25.39,0-25.39,26.29-50.78,26.29s-25.39-26.29-50.78-26.29s-25.39,26.29-50.78,26.29
		s-25.39-26.29-50.78-26.29s-25.39,26.29-50.79,26.29c-25.4,0-25.39-26.29-50.78-26.29s-25.39,26.29-50.79,26.29
		s-25.39-26.29-50.78-26.29s-25.39,26.29-50.78,26.29s-25.39-26.29-50.79-26.29c-25.4,0-25.39,26.29-50.78,26.29
		c-25.39,0-25.4-26.29-50.79-26.29c-25.39,0-25.42,26.29-50.82,26.29"/>
	<path id="Path_1166" class="st0" d="M1720.61,891.15c-25.39,0-25.39-26.29-50.78-26.29s-25.39,26.29-50.78,26.29
		s-25.39-26.29-50.78-26.29s-25.39,26.29-50.78,26.29c-25.39,0-25.39-26.29-50.78-26.29s-25.39,26.29-50.78,26.29
		c-25.39,0-25.39-26.29-50.78-26.29s-25.39,26.29-50.78,26.29c-25.39,0-25.39-26.29-50.78-26.29s-25.4,26.29-50.79,26.29
		c-25.39,0-25.39-26.29-50.78-26.29s-25.39,26.29-50.78,26.29s-25.39-26.29-50.78-26.29s-25.39,26.29-50.78,26.29
		c-25.39,0-25.39-26.29-50.78-26.29s-25.39,26.29-50.79,26.29c-25.4,0-25.39-26.29-50.78-26.29s-25.39,26.29-50.79,26.29
		s-25.39-26.29-50.78-26.29s-25.39,26.29-50.78,26.29s-25.39-26.29-50.79-26.29c-25.4,0-25.39,26.29-50.78,26.29
		c-25.39,0-25.4-26.29-50.79-26.29c-25.39,0-25.42,26.29-50.82,26.29"/>
</g>
</svg>
